<svg xmlns="http://www.w3.org/2000/svg" viewBox="0 0 44 32"><defs><style>.cls-1{fill:#006fce;}.cls-2{fill:#fff;}</style></defs><g id="Icons"><rect class="cls-1" x="5" y="2" width="34" height="28" rx="6"/><polygon class="cls-2" points="37.47 18.1 35.41 20.28 37.47 22.47 37.47 24.04 33.91 20.27 37.47 16.55 37.47 18.1"/><path class="cls-2" d="M31,8l1.67,4.67L34.32,8h3.15V6.88H33.52l-.89,2.5-.88-2.5h-5.1v3.31L25.18,6.88H21.07L16.8,16.54h3.44v8.58H30.9l1.67-1.84,1.67,1.84h3.23V24H34.78l-2.19-2.42L30.38,24H27.76l3.54-3.75-3.54-3.75h2.69l2.18,2.4,2.19-2.4h2.65V15.46h-2V10.2l-1.93,5.26h-1.8l-1.93-5.25v5.25H25.46L24.83,14H21.38l-.62,1.5H18.51L21.82,8h2.63l3.31,7.5V8Zm-9.59,8.58h6.38v1.74H23.43v1.17h4.23v1.69H23.43v1.17h4.33V24H21.38Z"/><polygon class="cls-1" points="33.91 20.27 37.47 24.04 34.78 24.04 32.59 21.62 30.38 24.04 27.76 24.04 31.3 20.29 27.76 16.55 30.45 16.55 32.63 18.94 34.82 16.55 37.47 16.55 33.91 20.27"/><polygon class="cls-1" points="23.43 18.28 23.43 19.45 27.66 19.45 27.66 21.14 23.43 21.14 23.43 22.31 27.76 22.31 27.76 24.04 21.38 24.04 21.38 16.55 27.76 16.55 27.76 18.28 23.43 18.28"/><polygon class="cls-1" points="37.47 7.96 37.47 15.46 35.45 15.46 35.45 10.2 33.52 15.46 31.72 15.46 29.79 10.21 29.79 15.46 27.76 15.46 27.76 7.96 30.97 7.96 32.64 12.63 34.32 7.96 37.47 7.96"/><path class="cls-1" d="M24.45,8H21.82l-3.31,7.5h2.25l.62-1.5h3.45l.63,1.5h2.3Zm-2.36,4.31,1-2.45,1,2.45Z"/><polygon class="cls-2" points="24.12 12.27 22.09 12.27 23.1 9.82 24.12 12.27"/></g></svg>