<svg xmlns="http://www.w3.org/2000/svg" viewBox="0 0 44 32"><defs><style>.cls-1{fill:#222;}.cls-2{fill:#fff;}</style></defs><g id="Icons"><rect class="cls-1" y="2" width="44" height="28" rx="6"/><path class="cls-2" d="M12,11.39a2.47,2.47,0,0,0,.57-1.75,2.46,2.46,0,0,0-1.62.83,2.33,2.33,0,0,0-.58,1.69A2,2,0,0,0,12,11.39"/><path class="cls-2" d="M12.57,12.28c-.9-.06-1.66.51-2.09.51s-1.09-.48-1.8-.47a2.65,2.65,0,0,0-2.26,1.37c-1,1.66-.25,4.13.69,5.49.46.67,1,1.41,1.73,1.38s.95-.44,1.78-.44,1.08.44,1.8.43,1.22-.67,1.68-1.34a6,6,0,0,0,.75-1.55,2.42,2.42,0,0,1-1.46-2.21,2.46,2.46,0,0,1,1.18-2.08,2.57,2.57,0,0,0-2-1.09"/><path class="cls-2" d="M20.4,10.41a3.15,3.15,0,0,1,3.31,3.31A3.2,3.2,0,0,1,20.35,17H18.19v3.44H16.62V10.41Zm-2.21,5.32H20a1.89,1.89,0,0,0,2.13-2,1.87,1.87,0,0,0-2.12-2h-1.8Z"/><path class="cls-2" d="M24.12,18.39c0-1.28,1-2.07,2.73-2.17l2-.12v-.56c0-.82-.55-1.31-1.47-1.31a1.4,1.4,0,0,0-1.55,1.08H24.41C24.5,14,25.63,13,27.44,13s2.92.95,2.92,2.42v5.06H28.92V19.27h0a2.6,2.6,0,0,1-2.32,1.33A2.23,2.23,0,0,1,24.12,18.39Zm4.74-.66v-.58l-1.81.11c-.9.06-1.41.46-1.41,1.09s.53,1.06,1.34,1.06A1.76,1.76,0,0,0,28.86,17.73Z"/><path class="cls-2" d="M31.72,23.18V22a2.69,2.69,0,0,0,.49,0,1.23,1.23,0,0,0,1.31-1s.13-.45.13-.45L31,13.14h1.63l1.86,6h0l1.85-6H38l-2.75,7.72c-.62,1.78-1.35,2.35-2.87,2.35C32.21,23.21,31.84,23.2,31.72,23.18Z"/></g></svg>