<svg xmlns="http://www.w3.org/2000/svg" viewBox="0 0 44 32"><defs><style>.cls-1{fill:#fff;}.cls-2{fill:#f6921a;}</style></defs><g id="Icons"><rect class="cls-1" y="2" width="44" height="28" rx="6"/><g id="_0" data-name="0"><g id="_1" data-name="1"><g id="_2" data-name="2"><path id="_5" data-name="5" class="cls-2" d="M30.73,18.18A9,9,0,1,1,24.18,7.27,9,9,0,0,1,30.73,18.18Z"/><path id="_2-2" data-name="2" class="cls-1" d="M26,14.72c.18-1.2-.74-1.84-2-2.27l.4-1.63-1-.24L23,12.16,22.22,12l.4-1.59-1-.24-.41,1.62-.63-.15h0l-1.36-.34L19,12.32s.73.17.72.18a.52.52,0,0,1,.46.57l-.46,1.85.1,0-.11,0L19,17.52a.36.36,0,0,1-.45.23l-.72-.18-.49,1.13,1.28.32.71.18L19,20.85l1,.24.4-1.62.79.2-.41,1.62,1,.24.41-1.63c1.68.31,2.95.19,3.48-1.34a1.73,1.73,0,0,0-.9-2.39A1.59,1.59,0,0,0,26,14.72Zm-2.26,3.16c-.3,1.23-2.37.57-3,.4l.54-2.18C21.88,16.27,24,16.6,23.71,17.88ZM24,14.7c-.28,1.12-2,.55-2.56.41l.49-2C22.51,13.28,24.31,13.54,24,14.7Z"/></g></g></g></g></svg>