<svg xmlns="http://www.w3.org/2000/svg" viewBox="0 0 44 32"><defs><style>.cls-1{fill:#fff;}.cls-2{fill:#0b4f93;}</style></defs><g id="Icons"><rect class="cls-1" y="2" width="44" height="28" rx="6"/><path class="cls-2" d="M22.49,11.65v8.67a4.64,4.64,0,0,0,0-8.67ZM16.19,16a4.65,4.65,0,0,0,3,4.33V11.65A4.66,4.66,0,0,0,16.19,16Zm6.3-4.34v8.67a4.64,4.64,0,0,0,0-8.67ZM16.19,16a4.65,4.65,0,0,0,3,4.33V11.65A4.66,4.66,0,0,0,16.19,16Zm6.69-8H20.82a7.89,7.89,0,0,0-8.07,8.07A8,8,0,0,0,20.82,24h2.06c4.38,0,8.37-3.57,8.37-7.93A8.17,8.17,0,0,0,22.88,8ZM20.83,23a7,7,0,1,1,7-7A7,7,0,0,1,20.83,23Zm1.66-11.32v8.67a4.64,4.64,0,0,0,0-8.67ZM16.19,16a4.65,4.65,0,0,0,3,4.33V11.65A4.66,4.66,0,0,0,16.19,16Z"/></g></svg>