<svg xmlns="http://www.w3.org/2000/svg" viewBox="0 0 44 32"><defs><style>.cls-1{fill:#fff;}.cls-2{fill:#f47922;}.cls-3{fill:#231f20;}</style></defs><g id="Icons"><rect class="cls-1" x="0.75" y="2.75" width="42.5" height="26.5" rx="5.25"/><path class="cls-2" d="M38,3.5A4.51,4.51,0,0,1,42.5,8V24A4.51,4.51,0,0,1,38,28.5H6A4.51,4.51,0,0,1,1.5,24V8A4.51,4.51,0,0,1,6,3.5H38M38,2H6A6,6,0,0,0,0,8V24a6,6,0,0,0,6,6H38a6,6,0,0,0,6-6V8a6,6,0,0,0-6-6Z"/><path class="cls-3" d="M4.63,13.2H3v5.67H4.62a3,3,0,0,0,2-.65,2.89,2.89,0,0,0,1-2.18A2.82,2.82,0,0,0,4.63,13.2Zm1.29,4.26a2.08,2.08,0,0,1-1.51.45h-.3V14.16h.3a2,2,0,0,1,1.51.46A1.89,1.89,0,0,1,6.54,16,1.92,1.92,0,0,1,5.92,17.46Z"/><rect class="cls-3" x="8.18" y="13.2" width="1.11" height="5.67"/><path class="cls-3" d="M12,15.38c-.66-.25-.85-.41-.85-.72S11.48,14,12,14a1.16,1.16,0,0,1,.89.46l.58-.75a2.47,2.47,0,0,0-1.67-.63A1.66,1.66,0,0,0,10,14.73c0,.78.35,1.18,1.39,1.56a4.11,4.11,0,0,1,.76.32.67.67,0,0,1,.34.59.81.81,0,0,1-.86.79,1.31,1.31,0,0,1-1.21-.75l-.71.69a2.22,2.22,0,0,0,2,1.08,1.83,1.83,0,0,0,1.95-1.87C13.62,16.24,13.25,15.84,12,15.38Z"/><path class="cls-3" d="M14,16a2.94,2.94,0,0,0,3,3,3.13,3.13,0,0,0,1.38-.33v-1.3A1.76,1.76,0,0,1,17,18a1.86,1.86,0,0,1-1.91-2,1.89,1.89,0,0,1,1.86-2,1.85,1.85,0,0,1,1.38.64v-1.3A2.76,2.76,0,0,0,17,13.07,3,3,0,0,0,14,16Z"/><polygon class="cls-3" points="27.12 17.01 25.61 13.2 24.4 13.2 26.8 19.02 27.4 19.02 29.85 13.2 28.65 13.2 27.12 17.01"/><polygon class="cls-3" points="30.35 18.87 33.48 18.87 33.48 17.91 31.45 17.91 31.45 16.38 33.41 16.38 33.41 15.42 31.45 15.42 31.45 14.16 33.48 14.16 33.48 13.2 30.35 13.2 30.35 18.87"/><path class="cls-3" d="M37.86,14.87c0-1.06-.73-1.67-2-1.67H34.22v5.67h1.1V16.59h.15L37,18.87h1.36l-1.79-2.39A1.51,1.51,0,0,0,37.86,14.87Zm-2.22.94h-.32V14.09h.34c.69,0,1.07.29,1.07.84S36.35,15.81,35.64,15.81Z"/><path class="cls-2" d="M24.71,16a3,3,0,1,1-3-3A3,3,0,0,1,24.71,16Z"/><path class="cls-2" d="M44,24a6,6,0,0,1-6,6H27V28.5c8,0,14-5.32,14-12.5S35,3.5,27,3.5V2H38a6,6,0,0,1,6,6Z"/></g></svg>