<svg xmlns="http://www.w3.org/2000/svg" viewBox="0 0 44 32"><defs><style>.cls-1{fill:#fff;}.cls-2{fill:#efccc1;}.cls-3{fill:#c8b2f4;}.cls-4{fill:#1616b3;}.cls-5{fill:#87a9f0;}.cls-6{fill:#b7f9f5;}</style></defs><g id="Icons"><rect class="cls-1" y="2" width="44" height="28" rx="6"/><polygon class="cls-2" points="21.75 25 21.75 21 16.8 18.11 21.75 25"/><polygon class="cls-3" points="22.25 25 27.2 18.11 22.25 21 22.25 25"/><path class="cls-4" d="M28,17.11,22,20.58l-5.95-3.47a.24.24,0,0,0-.3,0,.26.26,0,0,0,0,.31l6.06,8.44s.05,0,.07,0a.17.17,0,0,0,.08.06h.12a.17.17,0,0,0,.08-.06s.05,0,.07,0l6.06-8.44a.26.26,0,0,0,0-.31A.24.24,0,0,0,28,17.11ZM21.75,25,16.8,18.11,21.75,21Zm.5,0V21l4.95-2.89Z"/><polygon class="cls-5" points="16.4 16.16 21.75 19.22 21.75 13.77 16.93 15.93 16.4 16.16"/><polygon class="cls-3" points="22.25 13.77 22.25 19.22 27.6 16.16 26.39 15.62 22.25 13.77"/><path class="cls-4" d="M28.35,16l-6.13-9.9a.21.21,0,0,0-.16-.1h-.12a.21.21,0,0,0-.16.1L15.65,16a.24.24,0,0,0,.09.34l6.13,3.5a.27.27,0,0,0,.26,0l6.13-3.5A.25.25,0,0,0,28.35,16Zm-6.1-8.92,5.26,8.5-5.26-2.36Zm-.5,0v6.14l-5.26,2.36Zm0,12.13L16.4,16.16l.53-.23,4.82-2.16Zm.5,0V13.77l4.14,1.85,1.21.54Z"/><polygon class="cls-2" points="21.75 7.09 16.49 15.59 21.75 13.23 21.75 7.09"/><polygon class="cls-6" points="22.25 7.09 22.25 13.23 27.51 15.59 22.25 7.09"/></g></svg>