<svg xmlns="http://www.w3.org/2000/svg" viewBox="0 0 44 32"><defs><style>.cls-1{fill:#003664;}.cls-2{fill:#fff;}</style></defs><g id="Icons"><rect class="cls-1" y="2" width="44" height="28" rx="6"/><rect class="cls-2" x="12.04" y="11.19" width="0.97" height="1"/><path class="cls-2" d="M15.18,13.86a2.26,2.26,0,0,0-.25.38l0-.84H14c0,.63.05,1.07.05,1.7s0,1.25,0,2v1.39H15V16a2,2,0,0,1,.54-1.55,1.1,1.1,0,0,1,.77-.28,1.58,1.58,0,0,1,.61.12v-.89s-.32,0-.54,0A1.46,1.46,0,0,0,15.18,13.86Z"/><path class="cls-2" d="M20.6,13.55a2.65,2.65,0,0,0-3.32.95,3.12,3.12,0,0,0-.35,1.44,2.6,2.6,0,0,0,.79,2l.32.23a2.32,2.32,0,0,0,1.36.34,2.45,2.45,0,0,0,1.07-.19,2.4,2.4,0,0,0,.68-.46h0a2.84,2.84,0,0,0,.75-2A2.56,2.56,0,0,0,20.6,13.55Zm-.5,4.07a1.41,1.41,0,0,1-1.31,0,1.32,1.32,0,0,1-.25-.16,1.51,1.51,0,0,1-.48-.66,2.19,2.19,0,0,1-.17-1,2,2,0,0,1,.61-1.46,1.57,1.57,0,0,1,1-.36,1.38,1.38,0,0,1,1.3,1,2.62,2.62,0,0,1,.15.88A2,2,0,0,1,20.1,17.62Z"/><path class="cls-2" d="M11,13.39h-.85v.79a2.09,2.09,0,0,0-.41-.48,1.77,1.77,0,0,0-1.21-.4,2.06,2.06,0,0,0-1.7.9A2.91,2.91,0,0,0,6.31,16,3.26,3.26,0,0,0,6.46,17a2.32,2.32,0,0,0,.7,1.11,1.88,1.88,0,0,0,1.35.42,1.86,1.86,0,0,0,1.55-.82v.7a2.19,2.19,0,0,1-.11.67,1.14,1.14,0,0,1-.23.38,1.4,1.4,0,0,1-1.15.45,4,4,0,0,1-1.29-.21,4.59,4.59,0,0,1-.5-.24l-.1.88.4.14a4.69,4.69,0,0,0,1.43.22A2.84,2.84,0,0,0,10,20.4a1.69,1.69,0,0,0,.6-.53h0A3.24,3.24,0,0,0,11,17.8ZM10.1,16a2.1,2.1,0,0,1-.29,1.09A1.32,1.32,0,0,1,8,17.6a1.34,1.34,0,0,1-.31-.22,2.08,2.08,0,0,1-.46-1.46,1.92,1.92,0,0,1,.59-1.53,1.16,1.16,0,0,1,.79-.32,1.4,1.4,0,0,1,.84.31A2.14,2.14,0,0,1,10.1,16Z"/><rect class="cls-2" x="12.1" y="13.4" width="0.89" height="5.06"/><path class="cls-2" d="M27.21,14.68a2.07,2.07,0,0,0-2-1.4,1.94,1.94,0,0,0-1.35.52,1.85,1.85,0,0,0-.31.37l0-.77h-.85c0,.4,0,.67,0,1.07,0,1,0,1.68,0,2.66,0,1.23,0,2.45,0,3.68h.9v-3a3.11,3.11,0,0,0,.29.33,1.83,1.83,0,0,0,1.25.45,2.14,2.14,0,0,0,1.6-.69,3,3,0,0,0,.69-2.07A3.21,3.21,0,0,0,27.21,14.68Zm-.75,1.26a2.28,2.28,0,0,1-.13.78,1.39,1.39,0,0,1-1.33,1,1.42,1.42,0,0,1-1.33-1.08,2.64,2.64,0,0,1-.1-.79,2.37,2.37,0,0,1,.1-.7A1.46,1.46,0,0,1,25,14.07a1.35,1.35,0,0,1,1.23.84A2.15,2.15,0,0,1,26.46,15.94Z"/><path class="cls-2" d="M36.74,13.39l-1.13,2.74-.51,1.33,0,.07c-.13-.38-.3-.85-.46-1.3l-1.05-2.84h-1l2,5.07-1,2.35h.91l3.17-7.42Z"/><path class="cls-2" d="M30.17,13.3a2.61,2.61,0,0,0-1.58.43v.79A3,3,0,0,1,30,14a1.34,1.34,0,0,1,1.23.69,2.44,2.44,0,0,1,.09.66l-.73,0a4.1,4.1,0,0,0-1.7.27A1.42,1.42,0,0,0,28,17a1.55,1.55,0,0,0,.51,1.18,1.8,1.8,0,0,0,1.05.36,2.38,2.38,0,0,0,1.33-.34,3.87,3.87,0,0,0,.53-.54v.81h.78V15.19a2.25,2.25,0,0,0-.26-1.14A2,2,0,0,0,30.17,13.3Zm1.17,2.88a2.22,2.22,0,0,1-.08.68,1.35,1.35,0,0,1-.22.43,1.44,1.44,0,0,1-1.15.54.87.87,0,0,1-1-.81c0-.59.69-.9,1.07-1a5,5,0,0,1,.67,0c.23,0,.45,0,.68,0Z"/></g></svg>