<svg xmlns="http://www.w3.org/2000/svg" viewBox="0 0 44 32"><defs><style>.cls-1{fill:#fff;}.cls-2{fill:#4284f3;}.cls-3{fill:#34a753;}.cls-4{fill:#f9ba05;}.cls-5{fill:#e84235;}</style></defs><g id="Icons"><rect class="cls-1" y="2" width="44" height="28" rx="6"/><g id="G_Pay_Lockup" data-name="G Pay Lockup"><g id="Pay_Typeface" data-name="Pay Typeface"><g id="Letter_p" data-name="Letter p"><path d="M21,16.84v3.54H19.86V11.63h3a2.69,2.69,0,0,1,1.92.76,2.52,2.52,0,0,1,0,3.7,2.7,2.7,0,0,1-1.92.74H21Zm0-4.13v3h1.88A1.49,1.49,0,0,0,24,15.31a1.47,1.47,0,0,0,.45-1.07,1.55,1.55,0,0,0-1.56-1.52H21Z"/></g><g id="Letter_a" data-name="Letter a"><path d="M28.51,14.2a2.78,2.78,0,0,1,2,.66,2.39,2.39,0,0,1,.72,1.83v3.69H30.12v-.83h-.05a2.14,2.14,0,0,1-1.85,1A2.4,2.4,0,0,1,26.56,20a1.86,1.86,0,0,1-.66-1.46,1.75,1.75,0,0,1,.7-1.47,2.93,2.93,0,0,1,1.87-.55,3.25,3.25,0,0,1,1.65.37v-.26a1.3,1.3,0,0,0-.47-1,1.61,1.61,0,0,0-1.09-.41,1.71,1.71,0,0,0-1.48.8l-1-.62A2.74,2.74,0,0,1,28.51,14.2Zm-1.45,4.34a.88.88,0,0,0,.37.73,1.4,1.4,0,0,0,.87.29A1.79,1.79,0,0,0,29.57,19a1.68,1.68,0,0,0,.55-1.24,2.35,2.35,0,0,0-1.46-.41,1.94,1.94,0,0,0-1.14.32A1,1,0,0,0,27.06,18.54Z"/></g><g id="Letter_y" data-name="Letter y"><polygon points="37.3 14.39 33.56 23 32.4 23 33.79 19.99 31.32 14.39 32.54 14.39 34.32 18.68 34.35 18.68 36.08 14.39 37.3 14.39"/></g></g><g id="G_Mark" data-name="G Mark"><path id="Blue_500" data-name="Blue 500" class="cls-2" d="M16.51,16.12a6,6,0,0,0-.09-1.05H11.71V17h2.71a2.35,2.35,0,0,1-1,1.56v1.25H15A4.91,4.91,0,0,0,16.51,16.12Z"/><path id="Green_500" data-name="Green 500" class="cls-3" d="M13.42,18.56a3.05,3.05,0,0,1-1.71.48A3,3,0,0,1,8.9,17H7.23v1.29A5,5,0,0,0,11.71,21,4.8,4.8,0,0,0,15,19.81Z"/><path id="Yellow_500" data-name="Yellow 500" class="cls-4" d="M8.74,16a3,3,0,0,1,.16-1V13.76H7.23a5,5,0,0,0,0,4.5L8.9,17A3.12,3.12,0,0,1,8.74,16Z"/><path id="Red_500" data-name="Red 500" class="cls-5" d="M11.71,13a2.74,2.74,0,0,1,1.93.75l1.43-1.43A4.83,4.83,0,0,0,11.71,11a5,5,0,0,0-4.48,2.76L8.9,15.05A3,3,0,0,1,11.71,13Z"/></g></g></g></svg>