<svg xmlns="http://www.w3.org/2000/svg" viewBox="0 0 44 32"><defs><style>.cls-1{fill:#fff;}.cls-2{fill:#c06;}</style></defs><g id="Icons"><rect class="cls-1" y="2" width="44" height="28" rx="6"/><g id="g10"><g id="g12"><g id="g14"><g id="g24"><path class="cls-2" d="M20,15.4a.86.86,0,0,0-.15-.32.67.67,0,0,0-.28-.21,1.08,1.08,0,0,0-.43-.07h-.49v2h.62a1,1,0,0,0,.29-.05.63.63,0,0,0,.25-.16.74.74,0,0,0,.17-.29,1.16,1.16,0,0,0,.07-.44A1.88,1.88,0,0,0,20,15.4Zm0,0a.86.86,0,0,0-.15-.32.67.67,0,0,0-.28-.21,1.08,1.08,0,0,0-.43-.07h-.49v2h.62a1,1,0,0,0,.29-.05.63.63,0,0,0,.25-.16.74.74,0,0,0,.17-.29,1.16,1.16,0,0,0,.07-.44A1.88,1.88,0,0,0,20,15.4Zm0,0a.86.86,0,0,0-.15-.32.67.67,0,0,0-.28-.21,1.08,1.08,0,0,0-.43-.07h-.49v2h.62a1,1,0,0,0,.29-.05.63.63,0,0,0,.25-.16.74.74,0,0,0,.17-.29,1.16,1.16,0,0,0,.07-.44A1.88,1.88,0,0,0,20,15.4ZM25.51,15h0l-.41,1.15h.81Zm0,0h0l-.41,1.15h.81ZM20,15.4a.86.86,0,0,0-.15-.32.67.67,0,0,0-.28-.21,1.08,1.08,0,0,0-.43-.07h-.49v2h.62a1,1,0,0,0,.29-.05.63.63,0,0,0,.25-.16.74.74,0,0,0,.17-.29,1.16,1.16,0,0,0,.07-.44A1.88,1.88,0,0,0,20,15.4ZM23,9H18.26a1,1,0,0,0-1,1V23.05H23c5.19,0,7.44-2.93,7.44-7.06C30.42,12,28.17,9,23,9ZM20.62,16.4a1.42,1.42,0,0,1-.27.5,1.14,1.14,0,0,1-.44.33,1.49,1.49,0,0,1-.62.12H17.93V14.22h1.36a1.69,1.69,0,0,1,.56.09,1.34,1.34,0,0,1,.45.29,1.27,1.27,0,0,1,.3.49,1.94,1.94,0,0,1,.11.68A2.18,2.18,0,0,1,20.62,16.4Zm2.92,1H21.16V14.22h2.35v.58H21.85v.67h1.52V16H21.85v.77h1.69Zm2.78,0-.24-.7H24.91l-.24.7H24l1.19-3.13h.7L27,17.35Zm1.15,0V14.22h.69v2.55h1.52v.58ZM25.5,15l-.41,1.15h.81L25.51,15Zm-5.68.09a.67.67,0,0,0-.28-.21,1.08,1.08,0,0,0-.43-.07h-.49v2h.62a1,1,0,0,0,.29-.05.63.63,0,0,0,.25-.16.74.74,0,0,0,.17-.29,1.16,1.16,0,0,0,.07-.44A1.88,1.88,0,0,0,20,15.4.86.86,0,0,0,19.82,15.08Zm.15.32a.86.86,0,0,0-.15-.32.67.67,0,0,0-.28-.21,1.08,1.08,0,0,0-.43-.07h-.49v2h.62a1,1,0,0,0,.29-.05.63.63,0,0,0,.25-.16.74.74,0,0,0,.17-.29,1.16,1.16,0,0,0,.07-.44A1.88,1.88,0,0,0,20,15.4ZM25.51,15h0l-.41,1.15h.81Zm0,0h0l-.41,1.15h.81ZM20,15.4a.86.86,0,0,0-.15-.32.67.67,0,0,0-.28-.21,1.08,1.08,0,0,0-.43-.07h-.49v2h.62a1,1,0,0,0,.29-.05.63.63,0,0,0,.25-.16.74.74,0,0,0,.17-.29,1.16,1.16,0,0,0,.07-.44A1.88,1.88,0,0,0,20,15.4Z"/></g><g id="g28"><path id="path30" d="M22.33,7H13.1a1.48,1.48,0,0,0-1.48,1.48v15A1.49,1.49,0,0,0,13.1,25h9.23c6.48,0,10.05-3.2,10.05-9C32.38,12.63,31.08,7,22.33,7Zm0,17.51H13.1a1,1,0,0,1-1-1v-15a1,1,0,0,1,1-1h9.23c3.57,0,9.56,1.11,9.56,8.49C31.89,21.48,28.49,24.51,22.33,24.51Z"/></g><g id="g48"><path d="M16.14,15.78a1.45,1.45,0,1,1-1.44-1.44A1.45,1.45,0,0,1,16.14,15.78Z"/></g><g id="g52"><path d="M15.79,19.15v3.9a2.19,2.19,0,0,1-2.19-2.19V19.15a1.1,1.1,0,0,1,2.19,0Z"/></g></g></g></g></g></svg>