<?xml version="1.0" encoding="UTF-8"?>
<svg id="Layer_1" data-name="Layer 1" xmlns="http://www.w3.org/2000/svg" xmlns:xlink="http://www.w3.org/1999/xlink" viewBox="0 0 435.66 410.74">
  <defs>
    <style>
      .cls-1 {
        fill: url(#New_Gradient_Swatch_10);
      }

      .cls-1, .cls-2, .cls-3, .cls-4, .cls-5, .cls-6, .cls-7, .cls-8 {
        stroke-width: 0px;
      }

      .cls-2 {
        fill: url(#New_Gradient_Swatch_12);
      }

      .cls-4 {
        fill: url(#New_Gradient_Swatch_2);
      }

      .cls-5 {
        fill: #fff;
      }

      .cls-6 {
        fill: url(#New_Gradient_Swatch_1);
      }

      .cls-7 {
        fill: url(#New_Gradient_Swatch_11);
      }

      .cls-8 {
        fill: #7a3b00;
      }
    </style>
    <linearGradient id="New_Gradient_Swatch_10" data-name="New Gradient Swatch 10" x1="288.59" y1="12.74" x2="148.37" y2="398" gradientUnits="userSpaceOnUse">
      <stop offset="0" stop-color="#f5b047"/>
      <stop offset="1" stop-color="#ffcf6e"/>
    </linearGradient>
    <linearGradient id="New_Gradient_Swatch_11" data-name="New Gradient Swatch 11" x1="287.46" y1="394.89" x2="149.5" y2="15.85" gradientUnits="userSpaceOnUse">
      <stop offset="0" stop-color="#de6e00"/>
      <stop offset="1" stop-color="#ffeb91"/>
    </linearGradient>
    <linearGradient id="New_Gradient_Swatch_12" data-name="New Gradient Swatch 12" x1="87.89" y1="146.77" x2="423.46" y2="207.62" gradientTransform="translate(194.37 515.48) rotate(-120.28)" gradientUnits="userSpaceOnUse">
      <stop offset="0" stop-color="#ffe672"/>
      <stop offset=".62" stop-color="#eda117"/>
    </linearGradient>
    <linearGradient id="New_Gradient_Swatch_1" data-name="New Gradient Swatch 1" x1="10.88" y1="206.29" x2="424.66" y2="206.29" gradientUnits="userSpaceOnUse">
      <stop offset="0" stop-color="#b86300"/>
      <stop offset=".34" stop-color="#de8a00"/>
      <stop offset=".76" stop-color="#ffffba"/>
      <stop offset="1" stop-color="#b86300"/>
    </linearGradient>
    <linearGradient id="New_Gradient_Swatch_2" data-name="New Gradient Swatch 2" x1="0" y1="206.29" x2="435.66" y2="206.29" gradientUnits="userSpaceOnUse">
      <stop offset="0" stop-color="#f5b536"/>
      <stop offset=".44" stop-color="#ffeb87"/>
      <stop offset=".58" stop-color="#ffeb87"/>
      <stop offset="1" stop-color="#f5b536"/>
    </linearGradient>
  </defs>
  <g>
    <g>
      <polygon class="cls-8" points="96.7 262.64 10.88 262.64 78.31 296.1 96.7 262.64"/>
      <polygon class="cls-8" points="338.71 262.64 424.66 262.64 357.1 296.1 338.71 262.64"/>
    </g>
    <g>
      <path class="cls-1" d="m218.48,410.74c-2.8,0-5.47-.65-7.53-1.83l-15.35-8.8c-1.77-1.02-4.79-1.7-7.49-1.7-.96,0-1.85.09-2.55.26l-17.21,4.12c-.93.22-1.95.34-3,.34-4.28,0-8.77-1.8-11.44-4.58l-12.25-12.77c-1.97-2.06-6.37-4.07-9.23-4.21l-17.67-.89c-4.86-.25-10.42-3.82-12.66-8.13l-8.16-15.7c-1.32-2.54-4.97-5.71-7.67-6.65l-16.7-5.84c-4.59-1.6-8.92-6.6-9.85-11.37l-3.4-17.37c-.54-2.8-3.16-6.87-5.48-8.54l-14.38-10.3c-3.95-2.83-6.7-8.84-6.25-13.68l1.63-17.62c.27-2.85-1.1-7.49-2.86-9.74l-10.9-13.94c-3-3.83-3.94-10.37-2.14-14.89l6.53-16.44c1.05-2.66,1.05-7.5,0-10.15l-6.53-16.45c-1.8-4.52-.85-11.06,2.14-14.89l10.9-13.94c1.76-2.25,3.12-6.89,2.86-9.74l-1.63-17.62c-.45-4.84,2.3-10.85,6.25-13.69l14.39-10.31c2.32-1.67,4.94-5.74,5.48-8.54l3.4-17.37c.94-4.78,5.26-9.77,9.85-11.37l16.7-5.83c2.7-.94,6.35-4.11,7.67-6.65l8.16-15.7c2.24-4.32,7.8-7.89,12.66-8.13l17.67-.89c2.85-.14,7.25-2.15,9.23-4.22l12.25-12.77c2.67-2.78,7.16-4.57,11.44-4.57,1.05,0,2.06.11,3,.34l17.21,4.12c.71.17,1.59.26,2.55.26,2.7,0,5.72-.69,7.49-1.7l15.35-8.8c2.06-1.18,4.73-1.83,7.53-1.83s5.46.65,7.52,1.83l15.35,8.81c1.77,1.02,4.79,1.7,7.49,1.7.97,0,1.85-.09,2.55-.26l17.21-4.12c.94-.22,1.95-.34,3-.34,4.28,0,8.77,1.79,11.43,4.57l12.25,12.77c1.98,2.06,6.38,4.07,9.23,4.22l17.67.89c4.86.25,10.41,3.82,12.66,8.13l8.15,15.7c1.32,2.53,4.97,5.7,7.67,6.65l16.7,5.83c4.59,1.61,8.92,6.6,9.86,11.37l3.4,17.37c.55,2.8,3.16,6.87,5.49,8.54l14.38,10.31c3.95,2.83,6.7,8.85,6.25,13.69l-1.62,17.61c-.27,2.84,1.09,7.49,2.85,9.74l10.9,13.94c3,3.83,3.94,10.37,2.14,14.89l-6.53,16.45c-1.06,2.65-1.06,7.49,0,10.15l6.53,16.45c1.8,4.52.86,11.06-2.14,14.89l-10.89,13.94c-1.76,2.25-3.12,6.89-2.86,9.74l1.63,17.62c.45,4.84-2.3,10.85-6.25,13.69l-14.38,10.3c-2.32,1.67-4.94,5.74-5.48,8.54l-3.4,17.37c-.93,4.77-5.26,9.76-9.85,11.37l-16.71,5.84c-2.69.94-6.35,4.11-7.67,6.65l-8.15,15.7c-2.24,4.31-7.8,7.88-12.66,8.13l-17.67.89c-2.85.14-7.25,2.16-9.23,4.21l-12.25,12.77c-2.66,2.78-7.15,4.58-11.43,4.58-1.05,0-2.06-.12-3-.34l-17.21-4.12c-.7-.17-1.59-.26-2.55-.26-2.71,0-5.72.68-7.5,1.7l-15.34,8.8c-2.06,1.18-4.73,1.83-7.52,1.83h0Z"/>
      <path class="cls-7" d="m411.41,211.66c-1.38-3.46-1.38-9.13,0-12.59l6.52-16.45c1.37-3.46.62-8.7-1.67-11.63l-10.9-13.94c-2.29-2.94-3.89-8.37-3.55-12.08l1.63-17.62c.35-3.71-1.85-8.52-4.88-10.69l-14.38-10.31c-3.03-2.17-6.09-6.93-6.81-10.59l-3.4-17.37c-.71-3.65-4.18-7.65-7.69-8.88l-16.71-5.84c-3.52-1.23-7.8-4.94-9.52-8.25l-8.15-15.7c-1.71-3.31-6.16-6.17-9.88-6.36l-17.67-.89c-3.72-.19-8.87-2.54-11.46-5.23l-12.25-12.77c-2.58-2.69-7.65-4.18-11.27-3.31l-17.21,4.12c-3.62.87-9.23.06-12.46-1.79l-15.35-8.8c-3.23-1.85-8.52-1.85-11.75,0l-15.35,8.8c-3.23,1.86-8.84,2.66-12.46,1.79l-17.21-4.12c-3.62-.87-8.7.62-11.28,3.31l-12.25,12.77c-2.58,2.69-7.73,5.04-11.45,5.23l-17.67.89c-3.72.19-8.17,3.05-9.88,6.36l-8.16,15.7c-1.71,3.3-6,7.01-9.51,8.25l-16.7,5.84c-3.52,1.22-6.98,5.22-7.7,8.88l-3.4,17.37c-.71,3.66-3.78,8.42-6.81,10.59l-14.38,10.31c-3.03,2.17-5.23,6.98-4.88,10.69l1.63,17.62c.34,3.71-1.25,9.14-3.55,12.08l-10.9,13.94c-2.29,2.94-3.04,8.17-1.67,11.63l6.52,16.45c1.38,3.46,1.38,9.13,0,12.59l-6.52,16.45c-1.37,3.46-.62,8.7,1.67,11.63l10.9,13.94c2.29,2.93,3.89,8.37,3.55,12.08l-1.63,17.62c-.35,3.71,1.85,8.52,4.88,10.69l14.38,10.31c3.03,2.17,6.09,6.93,6.81,10.59l3.4,17.36c.71,3.66,4.18,7.65,7.7,8.88l16.7,5.84c3.52,1.23,7.8,4.94,9.52,8.25l8.16,15.7c1.72,3.31,6.16,6.17,9.88,6.35l17.67.89c3.72.19,8.88,2.54,11.45,5.23l12.25,12.77c2.58,2.69,7.65,4.18,11.28,3.31l17.21-4.12c3.62-.87,9.23-.06,12.46,1.79l15.35,8.8c3.23,1.86,8.52,1.86,11.75,0l15.35-8.8c3.23-1.86,8.84-2.66,12.46-1.79l17.21,4.12c3.62.87,8.7-.62,11.27-3.31l12.25-12.77c2.58-2.69,7.73-5.04,11.46-5.23l17.67-.89c3.72-.19,8.17-3.05,9.88-6.35l8.15-15.7c1.72-3.3,6-7.02,9.52-8.25l16.71-5.84c3.52-1.23,6.98-5.23,7.69-8.88l3.4-17.36c.72-3.66,3.78-8.42,6.81-10.59l14.38-10.31c3.03-2.17,5.23-6.98,4.88-10.69l-1.63-17.62c-.35-3.71,1.25-9.14,3.55-12.08l10.9-13.94c2.29-2.94,3.05-8.17,1.67-11.63l-6.52-16.45Z"/>
      <path class="cls-3" d="m218.48,49.68c-85.99,0-155.69,69.7-155.69,155.69s69.7,155.69,155.69,155.69,155.69-69.7,155.69-155.69S304.46,49.68,218.48,49.68Zm0,251.16c-52.72,0-95.47-42.74-95.47-95.47s42.74-95.46,95.47-95.46,95.46,42.74,95.46,95.46-42.74,95.47-95.46,95.47Z"/>
      <path id="stars" class="cls-2" d="m59.94,259.22l-.99-3.18-3.33-.04,2.71-1.93-.99-3.18,2.67,1.99,2.71-1.93-1.06,3.16,2.67,1.99-3.33-.04-1.07,3.15Zm-3.66-12.26l-.75-3.25-3.32-.29,2.86-1.71-.74-3.24,2.51,2.18,2.86-1.71-1.3,3.06,2.51,2.19-3.32-.29-1.3,3.06Zm-2.71-12.52l-.49-3.29-3.29-.55,2.98-1.49-.49-3.29,2.33,2.37,2.98-1.49-1.54,2.96,2.34,2.38-3.29-.55-1.54,2.95Zm-1.74-12.67l-.24-3.32-3.23-.8,3.09-1.25-.24-3.32,2.14,2.54,3.09-1.25-1.76,2.83,2.14,2.55-3.23-.8-1.76,2.82Zm-.76-12.76l.02-3.33-3.16-1.05,3.17-1.01.02-3.33,1.94,2.7,3.17-1.01-1.97,2.68,1.94,2.7-3.16-1.04-1.97,2.68Zm.22-12.79l.27-3.31-3.07-1.29,3.24-.77.27-3.32,1.73,2.84,3.24-.77-2.17,2.53,1.73,2.85-3.08-1.29-2.17,2.52Zm1.2-12.73l.52-3.29-2.97-1.51,3.29-.52.52-3.29,1.51,2.97,3.29-.52-2.36,2.35,1.51,2.97-2.97-1.51-2.36,2.35Zm2.15-12.59l.77-3.24-2.84-1.73,3.32-.27.77-3.24,1.29,3.07,3.32-.27-2.53,2.17,1.29,3.08-2.85-1.73-2.53,2.16Zm3.11-12.42l1.01-3.17-2.7-1.94,3.33-.02,1.01-3.17,1.04,3.16,3.33-.02-2.69,1.97,1.04,3.16-2.7-1.95-2.69,1.96Zm4.04-12.12l1.25-3.08-2.55-2.14,3.32.23,1.25-3.08.81,3.23,3.32.24-2.83,1.76.8,3.23-2.55-2.14-2.83,1.75Zm4.96-11.8l1.48-2.98-2.38-2.33,3.29.49,1.48-2.98.55,3.28,3.3.49-2.95,1.54.55,3.29-2.38-2.33-2.95,1.53Zm5.83-11.37l1.71-2.86-2.19-2.51,3.25.74,1.71-2.86.3,3.32,3.25.74-3.06,1.31.3,3.32-2.19-2.51-3.06,1.31Zm6.7-10.91l1.92-2.72-2-2.67,3.18.98,1.92-2.72.05,3.33,3.18.99-3.15,1.07.04,3.33-1.99-2.67-3.15,1.07Zm7.5-10.35l2.12-2.56-1.78-2.81,3.09,1.23,2.12-2.56-.21,3.32,3.1,1.23-3.23.82-.21,3.33-1.78-2.81-3.22.82Zm8.27-9.75l2.32-2.39-1.56-2.94,2.99,1.46,2.31-2.39-.46,3.29,3,1.47-3.29.58-.46,3.3-1.56-2.94-3.28.57Zm9.02-9.1l2.49-2.21-1.33-3.05,2.87,1.69,2.49-2.21-.71,3.25,2.87,1.69-3.31.32-.72,3.25-1.33-3.05-3.31.32Zm9.65-8.35l2.65-2.01-1.09-3.14,2.73,1.9,2.65-2.01-.96,3.19,2.73,1.9-3.33.07-.96,3.19-1.1-3.15-3.33.06Zm10.29-7.61l2.8-1.8-.85-3.22,2.58,2.11,2.8-1.8-1.2,3.1,2.58,2.11-3.32-.19-1.21,3.11-.85-3.22-3.32-.19Zm10.81-6.79l2.93-1.58-.61-3.28,2.42,2.29,2.92-1.59-1.43,3.01,2.41,2.29-3.3-.43-1.44,3.01-.6-3.28-3.3-.44Zm11.32-5.97l3.04-1.36-.36-3.31,2.23,2.47,3.04-1.36-1.65,2.89,2.24,2.47-3.26-.68-1.66,2.89-.36-3.31-3.25-.68Zm11.73-5.09l3.13-1.13-.1-3.33,2.04,2.63,3.13-1.13-1.87,2.75,2.04,2.63-3.2-.93-1.88,2.76-.11-3.33-3.19-.93Zm12.07-4.18l3.2-.88.16-3.33,1.83,2.78,3.21-.88-2.08,2.61,1.83,2.78-3.12-1.17-2.08,2.6.15-3.33-3.12-1.18Zm12.39-3.25l3.27-.63.41-3.31,1.61,2.91,3.27-.63-2.27,2.44,1.61,2.91-3.02-1.41-2.28,2.43.41-3.3-3.01-1.41Zm12.6-2.27l3.31-.38.66-3.26,1.38,3.03,3.31-.38-2.45,2.25,1.39,3.03-2.9-1.64-2.46,2.25.66-3.26-2.9-1.64Zm12.72-1.31l3.32-.12.91-3.2,1.15,3.13,3.33-.12-2.62,2.06,1.15,3.13-2.77-1.86-2.62,2.06.91-3.2-2.76-1.86Zm12.78-.33l3.33.13,1.15-3.12.91,3.21,3.32.13-2.77,1.85.91,3.21-2.62-2.07-2.77,1.85,1.15-3.12-2.61-2.06Zm12.75.65l3.31.38,1.39-3.02.66,3.26,3.31.38-2.9,1.64.66,3.26-2.46-2.25-2.9,1.64,1.38-3.03-2.45-2.25Zm12.67,1.62l3.27.63,1.61-2.92.41,3.31,3.26.63-3.01,1.42.41,3.3-2.28-2.43-3.02,1.41,1.61-2.92-2.27-2.43Zm12.54,2.58l3.21.88,1.83-2.79.16,3.32,3.21.88-3.12,1.18.16,3.33-2.08-2.6-3.12,1.18,1.83-2.78-2.08-2.6Zm12.3,3.52l3.13,1.12,2.04-2.63-.1,3.33,3.13,1.12-3.19.94-.1,3.33-1.88-2.75-3.2.94,2.04-2.64-1.87-2.75Zm11.98,4.44l3.04,1.36,2.23-2.48-.35,3.31,3.04,1.35-3.25.69-.35,3.31-1.67-2.88-3.26.69,2.23-2.48-1.66-2.89Zm11.61,5.35l2.93,1.58,2.41-2.29-.6,3.27,2.93,1.58-3.3.44-.6,3.28-1.44-3-3.3.44,2.41-2.3-1.44-3Zm11.19,6.22l2.8,1.8,2.58-2.1-.85,3.22,2.8,1.8-3.32.19-.85,3.22-1.21-3.1-3.32.19,2.58-2.11-1.2-3.1Zm10.66,7.05l2.65,2.01,2.73-1.9-1.09,3.14,2.65,2.01-3.33-.07-1.09,3.15-.96-3.19-3.33-.07,2.73-1.9-.96-3.19Zm10.1,7.85l2.49,2.21,2.87-1.69-1.33,3.05,2.49,2.21-3.31-.32-1.33,3.05-.72-3.26-3.31-.33,2.87-1.68-.71-3.25Zm9.47,8.62l2.31,2.39,2.99-1.46-1.56,2.94,2.31,2.4-3.27-.58-1.57,2.94-.46-3.3-3.29-.58,2.99-1.46-.46-3.29Zm8.76,9.29l2.12,2.57,3.1-1.23-1.79,2.81,2.12,2.56-3.22-.82-1.78,2.81-.21-3.32-3.23-.83,3.1-1.22-.21-3.32Zm8.04,9.96l1.92,2.72,3.18-.99-1.99,2.67,1.92,2.72-3.15-1.07-2,2.67.04-3.33-3.16-1.07,3.18-.99.05-3.33Zm7.21,10.52l1.72,2.85,3.24-.76-2.18,2.52,1.72,2.85-3.07-1.29-2.18,2.52.28-3.32-3.07-1.29,3.24-.76.29-3.31Zm6.46,11.05l1.49,2.98,3.29-.5-2.37,2.34,1.49,2.98-2.95-1.53-2.37,2.34.54-3.29-2.96-1.53,3.29-.5.55-3.29Zm5.59,11.5l1.26,3.08,3.32-.25-2.54,2.15,1.26,3.08-2.83-1.75-2.54,2.15.79-3.24-2.83-1.76,3.32-.25.79-3.23Zm4.69,11.89l1.02,3.17h3.33s-2.7,1.96-2.7,1.96l1.02,3.17-2.69-1.96-2.7,1.95,1.04-3.17-2.69-1.97h3.33s1.04-3.15,1.04-3.15Zm3.77,12.21l.77,3.24,3.32.27-2.84,1.74.77,3.24-2.53-2.16-2.84,1.74,1.28-3.08-2.53-2.17,3.32.26,1.28-3.07Zm2.82,12.48l.52,3.29,3.29.52-2.97,1.51.52,3.29-2.35-2.35-2.97,1.51,1.51-2.97-2.36-2.35,3.29.52,1.51-2.96Zm1.85,12.66l.27,3.31,3.24.77-3.07,1.28.27,3.32-2.17-2.52-3.07,1.28,1.73-2.84-2.17-2.53,3.24.77,1.73-2.83Zm.87,12.75v3.33s3.18,1.02,3.18,1.02l-3.16,1.04v3.33s-1.96-2.68-1.96-2.68l-3.16,1.04,1.95-2.71-1.97-2.69,3.17,1.02,1.95-2.7Zm-.11,12.8l-.24,3.32,3.09,1.26-3.23.79-.24,3.32-1.76-2.83-3.23.8,2.15-2.55-1.76-2.83,3.08,1.26,2.15-2.54Zm-1.08,12.74l-.49,3.29,2.98,1.49-3.29.55-.49,3.29-1.54-2.95-3.28.55,2.34-2.38-1.54-2.96,2.98,1.49,2.34-2.37Zm-2.05,12.61l-.74,3.25,2.86,1.71-3.32.29-.74,3.25-1.31-3.06-3.32.3,2.51-2.19-1.31-3.06,2.86,1.71,2.51-2.19Zm-3,12.44l-.98,3.18,2.72,1.92-3.33.04-.99,3.18-1.07-3.15-3.33.04,2.67-1.99-1.07-3.16,2.72,1.92,2.67-1.99Zm-3.93,12.15l-1.22,3.1,2.57,2.12-3.32-.21-1.22,3.1-.83-3.22-3.32-.21,2.81-1.78-.83-3.23,2.57,2.12,2.81-1.79Zm-4.85,11.84l-1.46,2.99,2.4,2.31-3.3-.46-1.45,2.99-.59-3.28-3.3-.46,2.94-1.56-.58-3.28,2.4,2.31,2.94-1.56Zm-5.74,11.44l-1.68,2.87,2.22,2.49-3.26-.71-1.68,2.87-.33-3.31-3.26-.71,3.05-1.34-.33-3.32,2.21,2.49,3.05-1.33Zm-6.59,10.97l-1.9,2.74,2.02,2.65-3.19-.96-1.89,2.74-.08-3.33-3.19-.96,3.15-1.1-.07-3.33,2.02,2.65,3.14-1.1Zm-7.41,10.41l-2.1,2.58,1.81,2.79-3.11-1.2-2.1,2.58.18-3.32-3.11-1.2,3.22-.86.18-3.33,1.81,2.79,3.21-.85Zm-8.2,9.83l-2.29,2.42,1.59,2.92-3.01-1.44-2.29,2.42.43-3.3-3-1.43,3.28-.61.44-3.3,1.59,2.93,3.27-.6Zm-8.91,9.15l-2.47,2.23,1.36,3.04-2.88-1.66-2.47,2.23.69-3.25-2.88-1.66,3.31-.35.69-3.26,1.36,3.04,3.31-.35Zm-9.61,8.46l-2.63,2.03,1.12,3.13-2.75-1.88-2.63,2.03.93-3.19-2.75-1.88,3.33-.1.94-3.2,1.12,3.14,3.33-.09Zm-10.21,7.68l-2.78,1.83.88,3.21-2.6-2.08-2.78,1.83,1.17-3.12-2.6-2.08,3.33.16,1.17-3.12.88,3.21,3.32.16Zm-10.77,6.9l-2.91,1.62.63,3.27-2.44-2.27-2.91,1.62,1.4-3.02-2.43-2.27,3.3.41,1.41-3.02.63,3.27,3.3.41Zm-11.23,6.05l-3.02,1.39.39,3.31-2.26-2.45-3.03,1.39,1.63-2.9-2.26-2.45,3.27.65,1.63-2.9.39,3.31,3.26.66Zm-11.7,5.21l-3.12,1.15.13,3.33-2.06-2.61-3.12,1.16,1.84-2.77-2.06-2.62,3.21.9,1.85-2.77.13,3.33,3.2.91Zm-12.04,4.29l-3.21.91-.12,3.33-1.86-2.77-3.2.91,2.05-2.62-1.86-2.77,3.13,1.15,2.05-2.62-.12,3.33,3.13,1.15Zm-12.35,3.35l-3.26.66-.38,3.31-1.64-2.9-3.27.66,2.25-2.46-1.64-2.9,3.03,1.38,2.25-2.45-.38,3.31,3.03,1.38Zm-12.55,2.39l-3.3.41-.63,3.27-1.41-3.02-3.31.41,2.43-2.27-1.41-3.02,2.92,1.61,2.43-2.27-.63,3.27,2.91,1.61Zm-12.71,1.42l-3.33.15-.88,3.21-1.17-3.12-3.33.15,2.6-2.08-1.18-3.12,2.79,1.83,2.6-2.08-.88,3.21,2.78,1.83Zm-12.79.44l-3.33-.1-1.12,3.13-.94-3.2-3.33-.1,2.75-1.88-.94-3.2,2.64,2.04,2.75-1.88-1.12,3.13,2.63,2.04Zm-12.77-.53l-3.31-.35-1.36,3.04-.69-3.26-3.31-.35,2.88-1.67-.69-3.26,2.47,2.23,2.89-1.66-1.36,3.04,2.47,2.23Zm-12.72-1.51l-3.27-.6-1.59,2.93-.44-3.3-3.27-.6,3-1.44-.44-3.3,2.29,2.42,3.01-1.44-1.58,2.93,2.29,2.41Zm-12.53-2.46l-3.22-.85-1.8,2.8-.18-3.32-3.22-.85,3.1-1.21-.18-3.33,2.11,2.58,3.11-1.21-1.8,2.8,2.1,2.58Zm-12.33-3.42l-3.14-1.09-2.01,2.65.07-3.33-3.14-1.09,3.18-.97.07-3.33,1.91,2.73,3.19-.96-2.01,2.66,1.9,2.73Zm-12.02-4.34l-3.05-1.33-2.21,2.49.32-3.31-3.05-1.33,3.25-.72.32-3.32,1.69,2.88,3.25-.72-2.21,2.49,1.68,2.87Zm-11.65-5.24l-2.95-1.56-2.39,2.32.57-3.28-2.94-1.56,3.29-.47.57-3.28,1.47,2.99,3.3-.47-2.39,2.32,1.46,2.99Zm-11.24-6.12l-2.81-1.77-2.56,2.13.82-3.23-2.82-1.78,3.32-.22.82-3.22,1.23,3.1,3.33-.22-2.56,2.13,1.23,3.09Zm-10.73-6.96l-2.67-1.99-2.71,1.93,1.06-3.16-2.67-1.99,3.33.03,1.06-3.15.99,3.18,3.33.04-2.72,1.93.99,3.18Zm-10.16-7.75l-2.51-2.19-2.86,1.71,1.3-3.07-2.51-2.18,3.31.29,1.3-3.06.75,3.25,3.32.3-2.86,1.71.74,3.25Zm-9.54-8.52l-2.33-2.37-2.98,1.49,1.54-2.96-2.33-2.37,3.28.55,1.53-2.96.5,3.3,3.29.55-2.98,1.49.49,3.29Zm-8.86-9.23l-2.15-2.54-3.08,1.25,1.76-2.82-2.15-2.55,3.23.79,1.76-2.83.24,3.32,3.23.8-3.09,1.25.24,3.32Zm-8.12-9.87l-1.95-2.7-3.17,1.02,1.97-2.69-1.95-2.7,3.16,1.04,1.97-2.69v3.33s3.15,1.04,3.15,1.04l-3.17,1.02-.02,3.33Zm-7.35-10.47l-1.73-2.84-3.24.77,2.17-2.53-1.73-2.84,3.07,1.28,2.16-2.53-.27,3.32,3.08,1.28-3.24.77-.27,3.32Zm-6.54-11l-1.51-2.96-3.29.53,2.35-2.36-1.52-2.96,2.97,1.5,2.35-2.36-.52,3.29,2.97,1.51-3.29.53-.52,3.29Zm-5.68-11.44l-1.29-3.07-3.32.27,2.52-2.17-1.29-3.07,2.85,1.72,2.52-2.18-.76,3.24,2.85,1.73-3.32.28-.77,3.24Z"/>
    </g>
    <g>
      <rect class="cls-6" x="10.88" y="149.94" width="413.78" height="112.71"/>
      <path class="cls-4" d="m435.66,206.7c0,31.67-11.01,51.74-11.01,51.74H10.88S0,238.28,0,206.36c0-26.58,10.88-52.22,10.88-52.22h413.78s11.01,28.89,11.01,52.55Z"/>
    </g>
    <g>
      <g>
        <polygon class="cls-3" points="229.61 125.62 223.68 131.39 225.1 139.55 217.76 135.69 210.44 139.55 211.84 131.39 205.92 125.62 214.11 124.44 217.76 117.01 221.43 124.44 229.61 125.62"/>
        <g>
          <polygon class="cls-3" points="250.25 131.49 247.41 125.72 244.57 131.49 238.2 132.41 242.8 136.9 241.71 143.24 247.41 140.24 253.11 143.24 252.01 136.9 256.62 132.41 250.25 131.49"/>
          <polygon class="cls-3" points="190.97 131.83 188.12 126.05 185.28 131.83 178.92 132.74 183.51 137.23 182.43 143.58 188.12 140.58 193.82 143.58 192.72 137.23 197.33 132.74 190.97 131.83"/>
        </g>
      </g>
      <g>
        <polygon class="cls-3" points="205.92 285.12 211.86 279.34 210.44 271.19 217.77 275.05 225.1 271.19 223.7 279.34 229.61 285.12 221.43 286.3 217.77 293.73 214.11 286.3 205.92 285.12"/>
        <g>
          <polygon class="cls-3" points="185.28 279.25 188.12 285.02 190.97 279.25 197.33 278.33 192.74 273.84 193.82 267.5 188.12 270.5 182.43 267.5 183.53 273.84 178.92 278.33 185.28 279.25"/>
          <polygon class="cls-3" points="244.57 278.91 247.41 284.69 250.25 278.91 256.62 277.99 252.02 273.5 253.11 267.16 247.41 270.16 241.71 267.16 242.81 273.5 238.2 277.99 244.57 278.91"/>
        </g>
      </g>
    </g>
  </g>
  <g id="_text_" data-name="&amp;lt;text&amp;gt;">
    <g>
      <g>
        <path class="cls-5" d="m146.09,304.38l-6.81-5.98,4.32-4.93c1.26-1.43,1.97-2.39,2.13-2.87.17-.48,0-.94-.5-1.38-.56-.49-1.11-.59-1.64-.29-.53.3-1.42,1.17-2.68,2.6l-11.55,13.17c-1.21,1.38-1.92,2.34-2.14,2.9-.22.55-.06,1.06.47,1.52.51.45,1.02.53,1.55.24.53-.28,1.47-1.21,2.84-2.76l3.12-3.56,6.82,5.98-.97,1.1c-2.57,2.93-4.59,4.85-6.05,5.74-1.46.89-3.25,1.22-5.37,1-2.12-.23-4.14-1.18-6.06-2.87-2-1.75-3.3-3.59-3.91-5.5-.61-1.92-.52-3.75.27-5.5.79-1.75,2.41-4.02,4.84-6.8l7.27-8.28c1.79-2.04,3.2-3.52,4.22-4.43,1.03-.91,2.27-1.55,3.75-1.93,1.47-.38,3.01-.35,4.63.11,1.62.46,3.16,1.33,4.64,2.63,2.01,1.76,3.3,3.63,3.87,5.62.57,1.98.51,3.78-.18,5.4-.69,1.61-2.19,3.74-4.52,6.39l-2.36,2.69Z"/>
        <path class="cls-5" d="m160.42,294.07l13.19,7.38-3.68,6.59-5.28-2.95-3.49,6.24,4.94,2.76-3.5,6.26-4.94-2.76-4.05,7.24,5.81,3.25-3.68,6.59-13.72-7.67,18.4-32.91Z"/>
        <path class="cls-5" d="m177.19,303.24l6.12,1.92c4.08,1.28,6.79,2.31,8.13,3.11,1.34.79,2.24,2.03,2.72,3.72.47,1.69.23,4.06-.73,7.13-.88,2.8-1.79,4.58-2.73,5.34-.95.76-2.39.94-4.34.54,1.57,1,2.53,1.97,2.88,2.92.35.96.49,1.78.43,2.47-.06.69-.54,2.49-1.45,5.39l-2.97,9.49-8.03-2.51,3.74-11.96c.6-1.93.84-3.16.7-3.71-.14-.55-.8-1.01-1.99-1.38l-5.08,16.23-8.65-2.71,11.26-35.99Zm6.73,8.87l-2.5,8c.97.3,1.7.37,2.18.21s.97-1.04,1.47-2.63l.62-1.98c.36-1.14.4-1.95.14-2.42-.27-.47-.9-.87-1.9-1.18Z"/>
        <path class="cls-5" d="m218.99,311.58l-.68,7.52-5.36-.48-2.71,30.04-9.03-.81,2.71-30.04-5.34-.48.68-7.52,19.73,1.78Z"/>
        <path class="cls-5" d="m230.64,310.52l2.71,37.61-9.04.65-2.71-37.61,9.04-.65Z"/>
        <path class="cls-5" d="m234.74,310.1l14.98-3.35,1.65,7.36-6.13,1.37,1.56,6.98,5.46-1.22,1.57,7-5.46,1.22,3.46,15.45-8.85,1.98-8.24-36.8Z"/>
        <path class="cls-5" d="m260.62,302.45l13.55,35.19-8.46,3.26-13.55-35.19,8.46-3.26Z"/>
        <path class="cls-5" d="m264.44,300.88l13.13-7.49,3.74,6.56-5.26,3,3.54,6.21,4.92-2.8,3.55,6.23-4.92,2.8,4.11,7.2,5.78-3.3,3.74,6.56-13.66,7.78-18.68-32.76Z"/>
        <path class="cls-5" d="m280.98,291.28l5.07-4.5c3.28-2.91,5.63-4.71,7.08-5.41,1.44-.7,2.79-.94,4.05-.73,1.26.21,2.37.7,3.33,1.48.96.78,2.62,2.5,4.99,5.17l8.77,9.88c2.25,2.53,3.64,4.32,4.18,5.37.54,1.05.75,2.06.63,3.02-.12.97-.5,1.91-1.13,2.81-.63.91-1.76,2.08-3.38,3.52l-8.55,7.59-25.03-28.2Zm11.06-1.19l16.47,18.55c.98-.87,1.39-1.61,1.24-2.24-.15-.62-1.06-1.88-2.73-3.76l-9.72-10.96c-1.13-1.28-1.9-2.06-2.29-2.36-.4-.29-.8-.4-1.22-.33-.42.07-1,.43-1.74,1.09Z"/>
      </g>
      <g>
        <path class="cls-5" d="m142.17,103.72l-6.77,6.03-4.36-4.89c-1.27-1.42-2.13-2.25-2.59-2.47-.46-.22-.94-.12-1.43.32-.56.5-.72,1.03-.49,1.59.23.56.98,1.56,2.25,2.98l11.65,13.07c1.22,1.37,2.09,2.19,2.61,2.48.52.28,1.05.19,1.57-.28.5-.45.65-.95.43-1.51-.22-.56-1.01-1.61-2.39-3.15l-3.15-3.54,6.77-6.03.98,1.1c2.6,2.91,4.25,5.15,4.95,6.71.71,1.56.82,3.38.33,5.45-.49,2.08-1.68,3.97-3.59,5.67-1.98,1.77-3.96,2.83-5.94,3.21-1.98.37-3.79.05-5.43-.95-1.64-1-3.69-2.88-6.15-5.64l-7.33-8.22c-1.81-2.03-3.1-3.61-3.87-4.74s-1.26-2.45-1.46-3.95c-.2-1.51.03-3.03.68-4.58.65-1.55,1.71-2.97,3.18-4.28,1.99-1.78,4.01-2.83,6.05-3.15,2.04-.32,3.82-.04,5.33.84,1.52.88,3.45,2.63,5.79,5.26l2.38,2.67Z"/>
        <path class="cls-5" d="m141.04,84.86l13.12-7.5,3.75,6.55-5.25,3,3.55,6.21,4.92-2.81,3.56,6.23-4.92,2.81,4.12,7.2,5.78-3.3,3.75,6.55-13.65,7.8-18.72-32.73Z"/>
        <path class="cls-5" d="m164.66,72.43l6.1-1.99c4.07-1.33,6.88-2.05,8.43-2.18,1.55-.13,3.01.36,4.37,1.46,1.36,1.1,2.54,3.18,3.54,6.23.91,2.79,1.2,4.77.87,5.94-.33,1.17-1.4,2.16-3.22,2.96,1.86-.1,3.2.14,4.04.72.84.58,1.43,1.16,1.78,1.76.35.6,1,2.34,1.94,5.23l3.08,9.46-8,2.61-3.88-11.91c-.62-1.92-1.15-3.06-1.58-3.43-.43-.37-1.24-.36-2.43.03l5.27,16.17-8.62,2.81-11.68-35.85Zm10.62,3.33l2.6,7.97c.97-.32,1.6-.68,1.9-1.1.29-.41.18-1.41-.33-2.99l-.64-1.97c-.37-1.14-.8-1.82-1.29-2.05-.49-.23-1.24-.19-2.23.14Z"/>
        <path class="cls-5" d="m214.23,62l.75,7.51-5.36.53,2.99,30.01-9.02.9-2.99-30.01-5.34.53-.75-7.51,19.71-1.96Z"/>
        <path class="cls-5" d="m231.95,62.85l-2.37,37.63-9.05-.57,2.38-37.63,9.05.57Z"/>
        <path class="cls-5" d="m241.48,63.98l15.01,3.21-1.58,7.38-6.15-1.32-1.49,6.99,5.47,1.17-1.5,7.02-5.47-1.17-3.31,15.49-8.86-1.9,7.88-36.87Z"/>
        <path class="cls-5" d="m272.67,72.88l-13.15,35.34-8.5-3.16,13.15-35.34,8.5,3.16Z"/>
        <path class="cls-5" d="m281.61,76.76l13.22,7.34-3.66,6.6-5.29-2.94-3.47,6.25,4.95,2.75-3.48,6.27-4.95-2.75-4.03,7.25,5.82,3.23-3.66,6.6-13.74-7.63,18.3-32.97Z"/>
        <path class="cls-5" d="m304.67,90.68l5.11,4.46c3.3,2.88,5.39,4.99,6.27,6.33.88,1.34,1.29,2.65,1.25,3.93-.05,1.28-.4,2.44-1.04,3.49-.65,1.05-2.15,2.92-4.5,5.61l-8.68,9.95c-2.22,2.55-3.82,4.16-4.79,4.83-.97.67-1.94,1-2.92,1.01-.97,0-1.95-.25-2.93-.77-.98-.51-2.29-1.48-3.92-2.91l-8.62-7.51,24.78-28.42Zm2.59,10.82l-16.3,18.7c.98.86,1.78,1.17,2.38.94.6-.23,1.73-1.29,3.38-3.19l9.63-11.04c1.12-1.29,1.8-2.15,2.04-2.57.24-.43.3-.85.18-1.25-.12-.41-.56-.93-1.3-1.58Z"/>
      </g>
    </g>
    <g>
      <path class="cls-3" d="m87.36,172.37v68.32h-16.93v-68.32h16.93Z"/>
      <path class="cls-3" d="m131.67,193.05h-15.72v-5.06c0-2.36-.2-3.87-.6-4.51-.4-.65-1.07-.97-2.01-.97-1.02,0-1.79.44-2.31,1.31-.52.87-.78,2.2-.78,3.97,0,2.28.29,4,.88,5.15.56,1.15,2.16,2.55,4.78,4.18,7.54,4.69,12.28,8.54,14.24,11.55,1.96,3.01,2.94,7.86,2.94,14.56,0,4.87-.54,8.45-1.63,10.76-1.09,2.31-3.18,4.24-6.29,5.8-3.11,1.56-6.73,2.34-10.86,2.34-4.53,0-8.4-.9-11.6-2.7-3.2-1.8-5.3-4.09-6.29-6.88-.99-2.78-1.49-6.74-1.49-11.86v-4.47h15.72v8.31c0,2.56.22,4.21.66,4.94.44.73,1.23,1.1,2.35,1.1s1.96-.46,2.51-1.39c.55-.93.82-2.31.82-4.14,0-4.02-.52-6.65-1.57-7.89-1.07-1.24-3.71-3.3-7.92-6.2-4.21-2.92-7-5.05-8.36-6.37-1.37-1.32-2.5-3.15-3.4-5.49-.9-2.33-1.35-5.32-1.35-8.95,0-5.23.64-9.06,1.91-11.48s3.33-4.31,6.17-5.68c2.84-1.36,6.27-2.05,10.29-2.05,4.4,0,8.14.75,11.24,2.24,3.1,1.49,5.15,3.37,6.15,5.63,1,2.26,1.51,6.11,1.51,11.54v2.7Z"/>
      <path class="cls-3" d="m178.71,212.37c0,6.86-.15,11.72-.46,14.58-.31,2.86-1.27,5.46-2.9,7.83-1.62,2.36-3.81,4.18-6.57,5.44-2.76,1.27-5.98,1.9-9.65,1.9s-6.61-.6-9.39-1.79c-2.77-1.2-5.01-2.99-6.69-5.38-1.69-2.39-2.69-4.99-3.02-7.81-.32-2.81-.48-7.74-.48-14.77v-11.69c0-6.86.15-11.72.46-14.58.31-2.85,1.27-5.46,2.89-7.83,1.62-2.36,3.81-4.18,6.57-5.44,2.76-1.27,5.98-1.9,9.65-1.9s6.61.6,9.39,1.79c2.77,1.2,5.01,2.99,6.69,5.38,1.69,2.39,2.69,4.99,3.02,7.81.32,2.81.48,7.74.48,14.77v11.69Zm-16.93-22.45c0-3.18-.17-5.21-.5-6.1-.34-.89-1.03-1.33-2.07-1.33-.88,0-1.56.36-2.03,1.08-.47.72-.7,2.83-.7,6.35v31.9c0,3.97.15,6.41.46,7.34.31.93,1.03,1.39,2.15,1.39s1.89-.53,2.21-1.6c.32-1.07.48-3.61.48-7.64v-31.39Z"/>
      <path class="cls-3" d="m202.35,222.54h16.24c0,3.18.04,5.18.12,6.01.08.83.41,1.53.99,2.09.58.56,1.36.84,2.35.84.83,0,1.51-.27,2.05-.8.54-.53.84-1.22.91-2.07.07-.84.1-2.55.1-5.11v-10.89c-.8,1.83-2.01,3.2-3.62,4.11-1.61.91-3.61,1.37-5.99,1.37-2.98,0-5.6-.84-7.88-2.53-2.28-1.69-3.73-3.71-4.34-6.08-.62-2.36-.92-5.55-.92-9.58v-5.44c0-4.78.18-8.34.54-10.67.36-2.34,1.29-4.49,2.79-6.48,1.5-1.98,3.58-3.52,6.23-4.62,2.65-1.1,5.74-1.65,9.25-1.65,4.34,0,7.91.63,10.7,1.9,2.79,1.27,4.95,3.09,6.47,5.46,1.53,2.38,2.41,4.87,2.65,7.49.24,2.62.36,7.68.36,15.19v9.49c0,8.13-.11,13.57-.32,16.31-.21,2.74-1.15,5.34-2.79,7.79-1.65,2.45-3.88,4.28-6.7,5.51-2.81,1.22-6.07,1.83-9.77,1.83-4.58,0-8.33-.77-11.24-2.32-2.91-1.55-5-3.73-6.27-6.54-1.27-2.81-1.91-6.36-1.91-10.63Zm16.24-21.31c0,2.87.36,4.64,1.07,5.32.71.67,1.44,1.01,2.19,1.01,1.13,0,1.95-.43,2.47-1.29.52-.86.78-2.54.78-5.04v-12.36c0-3.01-.25-4.98-.74-5.91-.5-.93-1.32-1.39-2.47-1.39-.7,0-1.42.36-2.17,1.08-.75.72-1.13,2.65-1.13,5.8v12.79Z"/>
      <path class="cls-3" d="m286.91,195.49v22.79c0,5.18-.27,8.95-.8,11.31-.54,2.36-1.65,4.57-3.34,6.62-1.69,2.05-3.73,3.53-6.11,4.43-2.38.9-5.05,1.35-8,1.35-3.89,0-7.12-.47-9.69-1.41-2.57-.94-4.62-2.41-6.15-4.41-1.53-2-2.62-4.1-3.26-6.31s-.96-5.72-.96-10.53v-23.84c0-6.27.52-10.97,1.55-14.09,1.03-3.12,3.08-5.63,6.15-7.51,3.07-1.88,6.79-2.83,11.16-2.83,3.56,0,6.76.65,9.57,1.96,2.81,1.31,4.92,2.9,6.31,4.79,1.39,1.89,2.34,4.01,2.83,6.37.5,2.36.74,6.13.74,11.31Zm-16.24-5.74c0-3.63-.17-5.9-.5-6.81-.34-.91-1.12-1.37-2.35-1.37s-2,.49-2.39,1.46c-.39.97-.58,3.21-.58,6.73v33.33c0,3.97.18,6.36.54,7.17.36.82,1.15,1.22,2.35,1.22s2-.48,2.37-1.43c.37-.96.56-3.11.56-6.46v-33.84Z"/>
      <path class="cls-3" d="m332.7,195.49v22.79c0,5.18-.27,8.95-.8,11.31-.54,2.36-1.65,4.57-3.34,6.62-1.69,2.05-3.73,3.53-6.11,4.43-2.39.9-5.05,1.35-8,1.35-3.89,0-7.12-.47-9.69-1.41-2.57-.94-4.62-2.41-6.15-4.41-1.53-2-2.61-4.1-3.26-6.31-.64-2.21-.97-5.72-.97-10.53v-23.84c0-6.27.52-10.97,1.55-14.09,1.03-3.12,3.08-5.63,6.15-7.51,3.07-1.88,6.79-2.83,11.16-2.83,3.56,0,6.75.65,9.57,1.96,2.81,1.31,4.92,2.9,6.31,4.79,1.39,1.89,2.34,4.01,2.84,6.37.49,2.36.74,6.13.74,11.31Zm-16.24-5.74c0-3.63-.17-5.9-.5-6.81-.34-.91-1.12-1.37-2.35-1.37s-2,.49-2.39,1.46-.58,3.21-.58,6.73v33.33c0,3.97.18,6.36.54,7.17.36.82,1.15,1.22,2.35,1.22s2-.48,2.37-1.43c.37-.96.56-3.11.56-6.46v-33.84Z"/>
      <path class="cls-3" d="m365.23,172.37v68.32h-16.24v-36.63c0-5.29-.12-8.47-.36-9.54-.24-1.07-.9-1.88-1.99-2.43-1.09-.55-3.5-.82-7.26-.82h-1.61v-7.96c7.85-1.77,13.82-5.42,17.89-10.94h9.57Z"/>
    </g>
  </g>
</svg>