<svg xmlns="http://www.w3.org/2000/svg" viewBox="0 0 44 32"><defs><style>.cls-1{fill:#fff;}.cls-2{fill:#0066b1;}.cls-3{fill:#c80d2c;}.cls-4{fill:#00a443;}</style></defs><g id="Icons"><rect class="cls-1" y="2" width="44" height="28" rx="6"/><path class="cls-2" d="M17.11,22.45a3.1,3.1,0,0,1-2.42,3,3.06,3.06,0,0,1-.74.09H9.29V18.86c.38.07.74.15,1.11.2s1,.12,1.49.15a8.84,8.84,0,0,0,2-.06,3.84,3.84,0,0,0,1.69-.61,2,2,0,0,0,.87-1.45,3.69,3.69,0,0,0,0-.58c0-1.14,0-2.28,0-3.43,0-.15,0-.15-.15-.15H13.74c0,.06,0,.11,0,.16v3.51a1.68,1.68,0,0,1-.13.7,1.44,1.44,0,0,1-1.17.86A4.12,4.12,0,0,1,10.65,18c-.44-.14-.86-.32-1.29-.48a.11.11,0,0,1-.08-.12c0-.19,0-.38,0-.57V9.6a3.16,3.16,0,0,1,2.54-3.07,3.68,3.68,0,0,1,.66-.06H17c.1,0,.13,0,.13.12C17.12,11.88,17.13,17.16,17.11,22.45Z"/><path class="cls-3" d="M25.92,6.47v16a3.15,3.15,0,0,1-2.44,3,3.65,3.65,0,0,1-.74.08H18.09V18.23h0a4.21,4.21,0,0,0,1.87.83,10.08,10.08,0,0,0,2.57.16,14.57,14.57,0,0,0,2.37-.35.12.12,0,0,0,.11-.14V17.6s0-.06,0-.1l-.42.19a5.93,5.93,0,0,1-2.28.52A2.85,2.85,0,0,1,21,17.93a1.88,1.88,0,0,1-1.07-1.53A2.66,2.66,0,0,1,20,15.18a1.94,1.94,0,0,1,1.45-1.29,4.26,4.26,0,0,1,1.88,0,6.24,6.24,0,0,1,1.59.55l.08,0h0s0-.06,0-.09V13.25c0-.09,0-.1-.11-.12a14.53,14.53,0,0,0-2.38-.35,9.82,9.82,0,0,0-2.42.14,4.33,4.33,0,0,0-2,.84l-.05,0V9.6a3.17,3.17,0,0,1,2.54-3.07,3.7,3.7,0,0,1,.66-.07h4.64Z"/><path class="cls-4" d="M34.72,6.6c0,5.26,0,10.52,0,15.78a3.14,3.14,0,0,1-2.44,3.06,3,3,0,0,1-.73.09H26.89V19.06H27c1.63,0,3.26,0,4.88,0a2.2,2.2,0,0,0,1.36-.43,1.41,1.41,0,0,0-.14-2.38,2.48,2.48,0,0,0-1-.32H32a5,5,0,0,0,.5-.15,1.41,1.41,0,0,0,.92-1,1.38,1.38,0,0,0-.84-1.59,2.75,2.75,0,0,0-1.14-.21H26.89V9.61a3.13,3.13,0,0,1,2.43-3,3.31,3.31,0,0,1,.77-.09h4.49C34.69,6.47,34.72,6.5,34.72,6.6Z"/><path class="cls-4" d="M30.31,18.06c-.61,0-1.22,0-1.84,0h0V16.4h1.88a.84.84,0,0,1,0,1.67Z"/><path class="cls-4" d="M30.19,15.43c-.57,0-1.15,0-1.72,0h0V13.9h1.67a.77.77,0,1,1,.08,1.53Z"/></g></svg>