<svg xmlns="http://www.w3.org/2000/svg" viewBox="0 0 44 32"><defs><style>.cls-1{fill:#fff;}.cls-2{fill:#253b80;}.cls-3{fill:#179ad6;}</style></defs><g id="Icons"><rect class="cls-1" y="2" width="44" height="28" rx="6"/><path class="cls-2" d="M11.16,12.17a2.41,2.41,0,0,0-1.9-.67H6.65a.36.36,0,0,0-.35.31L5.24,18.54a.22.22,0,0,0,.22.26H6.7a.37.37,0,0,0,.36-.31l.28-1.82a.37.37,0,0,1,.36-.31h.83a2.67,2.67,0,0,0,3-2.49A2,2,0,0,0,11.16,12.17ZM9.56,14c-.14.94-.86.94-1.55.94H7.62l.28-1.76A.21.21,0,0,1,8.11,13h.18c.47,0,.92,0,1.15.27A.91.91,0,0,1,9.56,14Z"/><path class="cls-2" d="M17.06,13.93H15.81a.22.22,0,0,0-.22.19l-.05.35-.09-.13A1.76,1.76,0,0,0,14,13.81a2.88,2.88,0,0,0-2.78,2.53,2.39,2.39,0,0,0,.46,1.93,1.92,1.92,0,0,0,1.57.64A2.37,2.37,0,0,0,15,18.19l0,.35a.22.22,0,0,0,.21.26h1.13a.35.35,0,0,0,.35-.31l.68-4.31A.22.22,0,0,0,17.06,13.93Zm-3.15,3.65a1,1,0,0,1-1-1.22,1.39,1.39,0,0,1,1.4-1.21,1,1,0,0,1,.83.34,1.07,1.07,0,0,1,.21.89A1.39,1.39,0,0,1,13.91,17.58Z"/><path class="cls-3" d="M29.76,12.17a2.41,2.41,0,0,0-1.9-.67H25.25a.37.37,0,0,0-.36.31l-1.05,6.73a.22.22,0,0,0,.21.26h1.34a.25.25,0,0,0,.25-.22l.3-1.91a.37.37,0,0,1,.36-.31h.82a2.68,2.68,0,0,0,3-2.49A2,2,0,0,0,29.76,12.17ZM28.16,14c-.14.94-.86.94-1.55.94h-.39l.28-1.76a.21.21,0,0,1,.21-.18h.18c.47,0,.91,0,1.14.27A.87.87,0,0,1,28.16,14Z"/><path class="cls-3" d="M38.54,11.5h-1.2a.21.21,0,0,0-.21.19l-1.07,6.85a.22.22,0,0,0,.21.26h1.08a.36.36,0,0,0,.35-.31l1.06-6.74A.22.22,0,0,0,38.54,11.5Z"/><path class="cls-2" d="M23.71,13.93H22.45a.37.37,0,0,0-.3.16l-1.73,2.57-.73-2.47a.38.38,0,0,0-.35-.26H18.11a.22.22,0,0,0-.21.29l1.38,4.09L18,20.15a.22.22,0,0,0,.18.35h1.25a.37.37,0,0,0,.3-.16l4.17-6.07A.22.22,0,0,0,23.71,13.93Z"/><path class="cls-3" d="M35.65,13.93H34.41a.22.22,0,0,0-.22.19l0,.35-.09-.13a1.76,1.76,0,0,0-1.48-.53,2.87,2.87,0,0,0-2.78,2.53,2.39,2.39,0,0,0,.46,1.93,1.92,1.92,0,0,0,1.57.64,2.37,2.37,0,0,0,1.73-.72l0,.35a.22.22,0,0,0,.21.26h1.13a.36.36,0,0,0,.35-.31l.68-4.31A.22.22,0,0,0,35.65,13.93ZM32.5,17.58a1,1,0,0,1-.83-.34,1,1,0,0,1-.2-.88,1.39,1.39,0,0,1,1.4-1.21,1,1,0,0,1,.83.34,1.07,1.07,0,0,1,.21.89A1.39,1.39,0,0,1,32.5,17.58Z"/></g></svg>