<svg xmlns="http://www.w3.org/2000/svg" viewBox="0 0 44 32"><defs><style>.cls-1{fill:#0054a6;}.cls-2{fill:#fff;}.cls-3{fill:#ffc10e;}</style></defs><g id="Icons"><rect class="cls-1" y="2" width="44" height="28" rx="6"/><path class="cls-2" d="M13.87,14.55h-2a1.25,1.25,0,0,0-.11-.66c-.12-.17-.45-.25-1-.25a2.58,2.58,0,0,0-1,.14c-.17.1-.25.31-.25.63a.64.64,0,0,0,.22.58,1,1,0,0,0,.43.11l.41,0,1.62.12a2.47,2.47,0,0,1,1.49.55,1.47,1.47,0,0,1,.43.9,5.66,5.66,0,0,1,0,.75,4.09,4.09,0,0,1-.18,1.42,1.85,1.85,0,0,1-1.51,1,9,9,0,0,1-1.5.09,9.4,9.4,0,0,1-2.34-.2,1.54,1.54,0,0,1-1.07-1,4.57,4.57,0,0,1-.15-1.4h2v.17c0,.35.1.57.3.67a1.06,1.06,0,0,0,.5.11h.73a2.54,2.54,0,0,0,.72-.06.55.55,0,0,0,.36-.35,1.35,1.35,0,0,0,0-.38c0-.36-.13-.57-.39-.65a11.74,11.74,0,0,0-1.34-.12c-.64-.05-1.08-.09-1.33-.13a1.83,1.83,0,0,1-1.31-.76,3,3,0,0,1-.29-1.48,3.69,3.69,0,0,1,.16-1.21,1.26,1.26,0,0,1,.5-.68,2.45,2.45,0,0,1,1.29-.43c.44,0,.93-.06,1.46-.06a7.53,7.53,0,0,1,1.8.15,1.77,1.77,0,0,1,1.31,2C13.89,14.24,13.88,14.38,13.87,14.55Z"/><path class="cls-2" d="M22.68,20V12h4a4.52,4.52,0,0,1,1.26.13,2,2,0,0,1,1.32,1.27,4.86,4.86,0,0,1,.18,1.52,5.93,5.93,0,0,1-.19,1.75,1.8,1.8,0,0,1-1.59,1.21c-.09,0-.49,0-1.2,0H24.83V20Zm2.15-3.92h1.34A2.62,2.62,0,0,0,27,16a.56.56,0,0,0,.25-.42,3.29,3.29,0,0,0,0-.62,2.46,2.46,0,0,0-.08-.76.63.63,0,0,0-.55-.42H24.83Z"/><path class="cls-2" d="M34.05,18.62H31.17L30.78,20H28.55L31,12H34.2l2.44,8H34.46Zm-.43-1.56-1-3.47-1,3.47Z"/><path class="cls-3" d="M19.7,13.13a2.79,2.79,0,0,1,2.2,1l.47-1a4.08,4.08,0,0,0-6.55,1.37h-.9l-.54,1.14h1.17c0,.11,0,.21,0,.32s0,.26,0,.39H15l-.54,1.15h1.42a4.09,4.09,0,0,0,6,1.72v-1.4a2.84,2.84,0,0,1-4.5-.32h3l.53-1.15H16.89a3,3,0,0,1,0-.42,2.83,2.83,0,0,1,0-.29h4.28l.54-1.14H17.25A2.82,2.82,0,0,1,19.7,13.13Z"/></g></svg>