<svg xmlns="http://www.w3.org/2000/svg" viewBox="0 0 44 32"><defs><style>.cls-1{fill:#fff;}.cls-2{fill:#2e3235;}.cls-2,.cls-3{fill-rule:evenodd;}.cls-3{fill:#e5e5e0;}</style></defs><g id="Icons"><rect class="cls-1" y="2" width="44" height="28" rx="6"/><path class="cls-2" d="M38.48,23H3.17L5.52,9H40.83Z"/><path class="cls-3" d="M14.43,17.16a1,1,0,0,1-1-1,1.3,1.3,0,0,1,1.29-1.31,1,1,0,0,1,1,1A1.28,1.28,0,0,1,14.43,17.16Zm.35-3.49A2.65,2.65,0,0,0,12,16.21a2.15,2.15,0,0,0,2.33,2.12,2.68,2.68,0,0,0,2.79-2.58A2.13,2.13,0,0,0,14.78,13.67Z"/><path class="cls-3" d="M24,17.16a1,1,0,0,1-1-1,1.29,1.29,0,0,1,1.28-1.31,1,1,0,0,1,1,1A1.29,1.29,0,0,1,24,17.16Zm.35-3.49a2.65,2.65,0,0,0-2.78,2.54,2.14,2.14,0,0,0,2.33,2.12,2.68,2.68,0,0,0,2.79-2.58A2.13,2.13,0,0,0,24.33,13.67Z"/><path class="cls-3" d="M29.07,15.88h-.21l.16-.94h.19c.44,0,.67.13.67.42S29.55,15.88,29.07,15.88Zm2.26-.74c0-.84-.66-1.38-1.85-1.38H27.8l-.74,4.48h1.42l.23-1.41h.06l.75,1.41h1.63l-1-1.57A1.63,1.63,0,0,0,31.33,15.14Z"/><path class="cls-3" d="M10.38,15.55c-.54-.27-.66-.34-.66-.49s.21-.27.51-.27a1.83,1.83,0,0,1,1.36.52,3,3,0,0,1,.6-1,4.16,4.16,0,0,0-2-.61c-1.2,0-1.9.64-1.9,1.41s.51,1,1.11,1.32.67.36.67.53-.23.28-.52.28a2.46,2.46,0,0,1-1.48-.66l-.2,1.25a2.83,2.83,0,0,0,1.7.53c1.24,0,1.92-.62,1.92-1.42S11.06,15.9,10.38,15.55Z"/><path class="cls-3" d="M20.84,15.73H19.18l.13-.79h1.78a3.15,3.15,0,0,1,1-1.18H19.21a1.29,1.29,0,0,0-1.29,1l-.57,3.45h1.42L19,16.83h1.68l.13-.77A1.84,1.84,0,0,1,20.84,15.73Z"/><path class="cls-3" d="M31.36,13.76A1.65,1.65,0,0,1,32,14.94H33.2l-.54,3.3h1.41l.55-3.3h1.31l.19-1.18Z"/></g></svg>