<svg xmlns="http://www.w3.org/2000/svg" viewBox="0 0 44 32"><defs><style>.cls-1{fill:#635bff;}.cls-2{fill:#fff;fill-rule:evenodd;}</style></defs><g id="Icons"><rect class="cls-1" y="2" width="44" height="28" rx="6"/><path class="cls-2" d="M36.42,16.2c0-2-1-3.67-2.89-3.67s-3.06,1.62-3.06,3.65c0,2.42,1.36,3.63,3.31,3.63A4.38,4.38,0,0,0,36,19.29v-1.6a4.27,4.27,0,0,1-2,.44c-.78,0-1.47-.27-1.55-1.22H36.4C36.4,16.81,36.42,16.39,36.42,16.2Zm-4-.76c0-.91.55-1.28,1.06-1.28s1,.37,1,1.28Zm-5.08-2.91a2.24,2.24,0,0,0-1.57.63l-.11-.5H23.94V22l2-.42V19.31a2.25,2.25,0,0,0,1.42.5c1.43,0,2.74-1.15,2.74-3.69,0-2.32-1.33-3.59-2.73-3.59Zm-.49,5.52a1.18,1.18,0,0,1-.94-.38v-3a1.2,1.2,0,0,1,.95-.39c.73,0,1.24.82,1.24,1.87S27.63,18.05,26.89,18.05Zm-5.71-6,2-.43V10l-2,.42Zm0,.61h2v7h-2ZM19,13.26l-.13-.59H17.17v7h2V14.93a1.4,1.4,0,0,1,1.52-.42V12.67a1.35,1.35,0,0,0-1.66.59Zm-4-2.33-1.95.42v6.41a2,2,0,0,0,2.07,2.06,3.21,3.21,0,0,0,1.41-.26V17.93c-.26.1-1.53.47-1.53-.71V14.37h1.53v-1.7H15ZM9.61,14.7c0-.31.25-.43.68-.43a4.46,4.46,0,0,1,2,.51V12.9a5.43,5.43,0,0,0-2-.37c-1.63,0-2.71.85-2.71,2.27,0,2.21,3,1.86,3,2.81,0,.37-.32.49-.76.49a5,5,0,0,1-2.19-.64v1.9a5.56,5.56,0,0,0,2.19.46c1.66,0,2.81-.82,2.81-2.26,0-2.39-3.06-2-3.06-2.86Z"/></g></svg>