<?xml version="1.0" encoding="utf-8"?>
<!-- Generator: Adobe Illustrator 27.3.1, SVG Export Plug-In . SVG Version: 6.00 Build 0)  -->
<svg version="1.1" id="Layer_1" xmlns="http://www.w3.org/2000/svg" xmlns:xlink="http://www.w3.org/1999/xlink" x="0px" y="0px"
	 viewBox="0 0 700 200" style="enable-background:new 0 0 700 200;" xml:space="preserve">
<style type="text/css">
	.st0{fill:url(#SVGID_1_);}
	.st1{fill:url(#SVGID_00000141429999790329830060000016564509470994971538_);}
	.st2{fill:#FFFFFF;}
	.st3{display:none;}
	.st4{display:inline;}
	.st5{fill:url(#SVGID_00000137093804541422422550000008536848747507859128_);}
	.st6{fill:url(#SVGID_00000153683550135148870420000013573791550300293810_);}
	.st7{fill:#13131D;}
	.st8{display:inline;fill:#13131D;}
	.st9{display:none;fill:#009247;}
</style>
<g>
	<g>
		<radialGradient id="SVGID_1_" cx="116.3817" cy="130.3708" r="0" gradientUnits="userSpaceOnUse">
			<stop  offset="0.2941" style="stop-color:#80B741"/>
			<stop  offset="0.4382" style="stop-color:#77B242"/>
			<stop  offset="0.6708" style="stop-color:#5CA644"/>
			<stop  offset="0.9614" style="stop-color:#1F9547"/>
			<stop  offset="1" style="stop-color:#079247"/>
		</radialGradient>
		<polygon class="st0" points="116.38,130.37 116.38,130.37 116.38,130.37 		"/>
	</g>
	
		<radialGradient id="SVGID_00000056401299161884975640000005974049896011508629_" cx="113.8178" cy="14.5877" r="190.7094" gradientUnits="userSpaceOnUse">
		<stop  offset="0.2941" style="stop-color:#80B741"/>
		<stop  offset="0.3911" style="stop-color:#77B242"/>
		<stop  offset="0.5476" style="stop-color:#5CA644"/>
		<stop  offset="0.7432" style="stop-color:#1F9547"/>
		<stop  offset="0.7692" style="stop-color:#079247"/>
	</radialGradient>
	<path style="fill:url(#SVGID_00000056401299161884975640000005974049896011508629_);" d="M229.58,48.86l-26.17,10.2l12.68-7.09
		c6.82-3.14,15.96-13.48,15.81-23.9c0-0.07-0.03-0.13-0.07-0.18c-38.81,21.41-54.04,25.98-61.41,31.12
		c-9,6.27-14.06,33.53-19.69,32.65c-0.95-0.15-2.04-0.11-3.4-3.3c-2.78-7.04-5.82-14.44,0.22-27.7c0.19-0.55,0.41-1.04,0.68-1.45
		l0-0.01l0,0c-7.19,2.73-13.44,7.37-19.76,9.38c-2.71,0.67-7.68-1.16-12.09-1.16c-4.41,0-8.82,2.01-12.09,1.16
		c-6.32-2.01-12.57-6.65-19.76-9.38c0,0,0,0,0,0c0,0,0,0,0,0c0.27,0.41,0.49,0.9,0.68,1.45c6.04,13.25,3.01,20.65,0.23,27.69
		c-1.36,3.2-2.45,3.16-3.4,3.31c-5.64,0.88-10.69-26.38-19.69-32.65c-7.37-5.13-22.61-9.71-61.41-31.12
		c-0.04,0.05-0.07,0.11-0.07,0.18C0.72,38.5,9.86,48.84,16.68,51.98l12.68,7.09L3.19,48.86C4.57,60,11.63,65.94,19.16,68.77
		l12.43,4.58c0,0-26.03-6.89-26.65-7.09c-0.37,10.07,9.03,16.88,19.09,20.07l7.25,1.99L9,85.42c-0.04,11.53,12.15,15.82,22.38,18.29
		l6.75,1.33l-24.64-0.89c3.12,9.75,12,14.72,25.22,14.41l4.31-0.17l3.46-0.3l-21.71,5.32c5.6,8.19,16.13,9.88,24.65,7.82
		c4.18-1.01,3.7-1.01,5.76-1.53l-11.92,6.19c9.71,5.12,16.07,2.39,23.77-1.05l-9.28,6.87c5.34,3.65,13.48,2.25,18.02-1.57l1.6-1.2
		l-6.53,8.6c8.27,2.35,11.63-3.06,15.28-6.35c0.59-0.53,2.62-2.7,7.59,1.95c-9.62-24.09-11.59-33.14-10.03-37.18
		c0.25,0.78,0.55,1.65,0.9,2.6c2.68,7.37,25.08,53.51,29.39,63.03v-56.04c-2.52-0.67-4.63-2.35-5.86-4.58
		c-0.74-1.34-1.16-2.88-1.16-4.52c0-5.22,4.23-9.44,9.44-9.44h0h0c5.21,0,9.44,4.23,9.44,9.44c0,1.82-0.54,3.5-1.44,4.94
		c-1.26,2.01-3.23,3.53-5.58,4.15v56.04c4.31-9.52,26.71-55.66,29.39-63.03c0.35-0.95,0.65-1.82,0.9-2.6
		c1.55,4.04-0.42,13.1-10.03,37.18c4.96-4.65,7-2.48,7.59-1.95c3.64,3.29,7,8.7,15.28,6.35l-6.53-8.6l1.6,1.2
		c4.54,3.82,12.68,5.22,18.02,1.57l-9.28-6.87c7.7,3.44,14.06,6.17,23.77,1.05l-11.92-6.19c2.06,0.52,1.58,0.52,5.76,1.53
		c8.52,2.06,19.05,0.37,24.65-7.82l-21.71-5.32l3.46,0.3l4.31,0.17c13.22,0.32,22.1-4.66,25.22-14.41l-24.64,0.89l6.75-1.33
		c10.23-2.47,22.42-6.76,22.38-18.29l-22.28,2.9l7.25-1.99c10.06-3.19,19.46-10,19.09-20.07c-0.62,0.2-26.65,7.09-26.65,7.09
		l12.43-4.58C221.14,65.94,228.2,60,229.58,48.86z"/>
</g>
<rect x="253.82" class="st2" width="3.49" height="199.49"/>
<g>
	<path class="st2" d="M318.53,95.79v41.92h-9.7v-17.19h-19.04v17.19h-9.7V95.79h9.7v16.53h19.04V95.79H318.53z"/>
	<path class="st2" d="M325.83,116.75c0-12.46,9.7-21.68,22.94-21.68c13.18,0,22.94,9.16,22.94,21.68c0,12.52-9.76,21.68-22.94,21.68
		C335.54,138.43,325.83,129.21,325.83,116.75z M361.89,116.75c0-7.97-5.63-13.42-13.12-13.42s-13.12,5.45-13.12,13.42
		s5.63,13.42,13.12,13.42S361.89,124.71,361.89,116.75z"/>
	<path class="st2" d="M375.73,133.58l3.29-7.31c3.53,2.58,8.8,4.37,13.83,4.37c5.75,0,8.09-1.92,8.09-4.49
		c0-7.85-24.38-2.46-24.38-18.03c0-7.13,5.75-13.06,17.67-13.06c5.27,0,10.66,1.26,14.55,3.71l-2.99,7.37
		c-3.89-2.22-7.91-3.29-11.62-3.29c-5.75,0-7.96,2.16-7.96,4.79c0,7.73,24.38,2.4,24.38,17.79c0,7.01-5.81,13-17.79,13
		C386.15,138.43,379.44,136.45,375.73,133.58z"/>
	<path class="st2" d="M425.32,103.69H411.9v-7.91h36.53v7.91h-13.42v34.02h-9.7V103.69z"/>
	<path class="st2" d="M453.65,95.79h9.7v41.92h-9.7V95.79z"/>
	<path class="st2" d="M511.74,95.79v41.92h-7.97l-20.9-25.45v25.45h-9.58V95.79h8.03l20.84,25.45V95.79H511.74z"/>
	<path class="st2" d="M550.01,116.09h8.86v17.01c-4.61,3.47-10.96,5.33-16.95,5.33c-13.18,0-22.88-9.04-22.88-21.68
		s9.7-21.68,23.06-21.68c7.37,0,13.48,2.52,17.55,7.25l-6.23,5.75c-3.05-3.23-6.59-4.73-10.84-4.73c-8.15,0-13.71,5.45-13.71,13.42
		c0,7.85,5.57,13.42,13.59,13.42c2.64,0,5.09-0.48,7.55-1.8V116.09z"/>
</g>
<g>
	<path class="st2" d="M288.76,49h-13.42v-7.91h36.53V49h-13.42v34.02h-9.7V49z"/>
	<path class="st2" d="M353.44,56.31c0,9.34-7.01,15.15-18.21,15.15h-8.45v11.56h-9.7V41.09h18.15
		C346.44,41.09,353.44,46.9,353.44,56.31z M343.62,56.31c0-4.61-3-7.31-8.92-7.31h-7.91v14.55h7.91
		C340.63,63.55,343.62,60.86,343.62,56.31z"/>
	<path class="st2" d="M358.3,62.06c0-12.64,9.7-21.68,22.76-21.68c7.25,0,13.3,2.64,17.25,7.43l-6.23,5.75
		c-2.82-3.23-6.35-4.91-10.54-4.91c-7.85,0-13.42,5.51-13.42,13.42s5.57,13.42,13.42,13.42c4.19,0,7.73-1.68,10.54-4.97l6.23,5.75
		c-3.95,4.85-10,7.49-17.31,7.49C368,83.74,358.3,74.69,358.3,62.06z"/>
</g>
<g class="st3">
	<g class="st4">
		<g>
			
				<radialGradient id="SVGID_00000054232365312322596520000006799882643145832080_" cx="114.722" cy="131.2806" r="0" gradientUnits="userSpaceOnUse">
				<stop  offset="0.2941" style="stop-color:#80B741"/>
				<stop  offset="0.4382" style="stop-color:#77B242"/>
				<stop  offset="0.6708" style="stop-color:#5CA644"/>
				<stop  offset="0.9614" style="stop-color:#1F9547"/>
				<stop  offset="1" style="stop-color:#079247"/>
			</radialGradient>
			<polygon style="fill:url(#SVGID_00000054232365312322596520000006799882643145832080_);" points="114.72,131.28 114.72,131.28 
				114.72,131.28 			"/>
		</g>
		
			<radialGradient id="SVGID_00000070088425405329606830000014525772838070994598_" cx="112.0819" cy="12.0578" r="196.3751" gradientUnits="userSpaceOnUse">
			<stop  offset="0.2941" style="stop-color:#80B741"/>
			<stop  offset="0.3911" style="stop-color:#77B242"/>
			<stop  offset="0.5476" style="stop-color:#5CA644"/>
			<stop  offset="0.7432" style="stop-color:#1F9547"/>
			<stop  offset="0.7692" style="stop-color:#079247"/>
		</radialGradient>
		<path style="fill:url(#SVGID_00000070088425405329606830000014525772838070994598_);" d="M231.28,47.35l-26.95,10.5l13.06-7.3
			c7.02-3.23,16.43-13.88,16.28-24.61c0-0.07-0.03-0.13-0.07-0.19c-39.96,22.04-55.65,26.75-63.24,32.04
			c-9.27,6.46-14.47,34.53-20.28,33.62c-0.98-0.15-2.1-0.12-3.5-3.4c-2.86-7.25-5.99-14.87,0.23-28.53c0.19-0.57,0.42-1.07,0.7-1.49
			l0-0.01l0,0c-7.4,2.81-13.84,7.59-20.34,9.66c-2.79,0.69-7.91-1.19-12.45-1.19s-9.08,2.07-12.44,1.19
			C95.77,65.6,89.34,60.82,81.93,58c0,0,0,0,0,0c0,0,0,0,0,0c0.28,0.42,0.51,0.93,0.7,1.5c6.22,13.65,3.1,21.27,0.24,28.51
			c-1.4,3.29-2.52,3.25-3.5,3.41c-5.8,0.91-11.01-27.16-20.28-33.62c-7.59-5.29-23.28-10-63.24-32.04
			c-0.04,0.05-0.07,0.11-0.07,0.19c-0.15,10.73,9.26,21.37,16.28,24.61l13.06,7.3l-26.95-10.5c1.42,11.46,8.69,17.59,16.45,20.5
			l12.8,4.72c0,0-26.8-7.09-27.44-7.3c-0.39,10.36,9.29,17.38,19.65,20.66l7.47,2.05L4.15,85c-0.04,11.87,12.51,16.29,23.05,18.83
			l6.95,1.37l-25.37-0.92c3.22,10.04,12.36,15.16,25.97,14.83l4.44-0.18l3.56-0.31l-22.35,5.48c5.77,8.44,16.61,10.17,25.38,8.05
			c4.31-1.04,3.81-1.04,5.93-1.57l-12.27,6.37c10,5.27,16.55,2.46,24.47-1.09l-9.56,7.08c5.49,3.76,13.88,2.31,18.55-1.62l1.65-1.23
			l-6.73,8.86c8.52,2.42,11.98-3.15,15.73-6.53c0.6-0.55,2.7-2.78,7.81,2.01c-9.9-24.8-11.93-34.12-10.33-38.29
			c0.26,0.8,0.57,1.7,0.93,2.68c2.76,7.59,25.83,55.1,30.26,64.9v-57.7c-2.6-0.69-4.77-2.42-6.04-4.71
			c-0.76-1.38-1.19-2.96-1.19-4.65c0-5.37,4.35-9.72,9.72-9.72h0h0c5.37,0,9.72,4.35,9.72,9.72c0,1.88-0.56,3.61-1.48,5.08
			c-1.29,2.07-3.33,3.63-5.75,4.28v57.7c4.43-9.8,27.5-57.31,30.26-64.9c0.36-0.98,0.67-1.88,0.93-2.68
			c1.6,4.17-0.43,13.49-10.33,38.29c5.11-4.79,7.21-2.55,7.81-2.01c3.75,3.39,7.21,8.95,15.73,6.53l-6.73-8.86l1.65,1.23
			c4.67,3.93,13.06,5.38,18.55,1.62l-9.56-7.08c7.93,3.54,14.47,6.36,24.47,1.09l-12.27-6.37c2.12,0.54,1.63,0.54,5.93,1.57
			c8.77,2.12,19.62,0.38,25.38-8.05l-22.35-5.48l3.56,0.31l4.44,0.18c13.61,0.33,22.75-4.79,25.97-14.83l-25.37,0.92l6.95-1.37
			c10.54-2.54,23.08-6.96,23.05-18.83l-22.94,2.98l7.47-2.05c10.36-3.28,20.04-10.3,19.65-20.66c-0.64,0.2-27.44,7.3-27.44,7.3
			l12.8-4.72C222.59,64.94,229.86,58.82,231.28,47.35z"/>
	</g>
	<g class="st4">
		<path class="st7" d="M304.47,43.42v23.72h-4.74V43.42h-8.51v-4.33h21.76v4.33H304.47z"/>
		<path class="st7" d="M318.12,67.14V39.08h4.74v12.16h13.93V39.08h4.74v28.06h-4.74V55.66h-13.93v11.48H318.12z"/>
		<path class="st7" d="M369.02,39.08v4.46h-14.97v7.43h13.45v4.21h-13.45v7.51h15.45v4.46h-20.19V39.08H369.02z"/>
		<path class="st7" d="M316.75,84.03c2.31,1.97,3.47,4.99,3.47,9.06s-1.19,7.05-3.56,8.94c-2.38,1.89-6,2.83-10.87,2.83h-4.39v9.2
			h-7.36V81.08h11.65C310.75,81.08,314.44,82.06,316.75,84.03z M311.35,97c0.88-0.99,1.32-2.44,1.32-4.34c0-1.9-0.57-3.26-1.72-4.06
			c-1.15-0.8-2.93-1.2-5.36-1.2h-4.2v11.09h4.95C308.8,98.49,310.47,97.99,311.35,97z"/>
		<path class="st7" d="M353.91,92.03c0,5.28-2.09,8.7-6.28,10.24l8.35,11.79h-9.06l-7.31-10.52h-5.09v10.52h-7.36V81.08h12.5
			c5.13,0,8.78,0.87,10.97,2.59C352.81,85.4,353.91,88.19,353.91,92.03z M345.04,95.94c0.91-0.82,1.37-2.11,1.37-3.89
			c0-1.78-0.47-3-1.42-3.66c-0.94-0.66-2.59-0.99-4.95-0.99h-5.52v9.77h5.38C342.41,97.17,344.13,96.76,345.04,95.94z"/>
		<path class="st7" d="M390.05,109.51c-3.33,3.25-7.44,4.88-12.31,4.88c-4.88,0-8.98-1.63-12.31-4.88c-3.33-3.26-5-7.3-5-12.15
			c0-4.84,1.67-8.89,5-12.15s7.44-4.88,12.31-4.88c4.88,0,8.98,1.63,12.31,4.88s5,7.31,5,12.15
			C395.05,102.2,393.38,106.25,390.05,109.51z M387.55,97.38c0-2.94-0.94-5.45-2.83-7.52c-1.89-2.08-4.21-3.11-6.96-3.11
			c-2.75,0-5.07,1.04-6.96,3.11c-1.89,2.08-2.83,4.58-2.83,7.52c0,2.94,0.94,5.44,2.83,7.5c1.89,2.06,4.21,3.09,6.96,3.09
			c2.75,0,5.07-1.03,6.96-3.09C386.6,102.82,387.55,100.32,387.55,97.38z"/>
		<path class="st7" d="M402.65,87.4v-6.32h17.17v21.51c0,3.93-1.01,6.87-3.04,8.82c-2.03,1.95-4.63,2.92-7.81,2.92
			c-3.96,0-7.42-1.53-10.38-4.58l3.82-5.28c1.98,2.14,4.06,3.21,6.23,3.21c1.04,0,1.93-0.4,2.67-1.2s1.11-2,1.11-3.61V87.4H402.65z"
			/>
		<path class="st7" d="M452.61,81.08v6.56h-16.42v6.79h14.77v6.27h-14.77v6.84h16.94v6.51h-24.3V81.08H452.61z"/>
		<path class="st7" d="M460.86,81.08h7.36v13.54l12.46-13.54h9.11l-13.12,14.58c1.13,1.57,3.22,4.51,6.28,8.8
			c3.05,4.29,5.33,7.49,6.84,9.6h-8.59l-9.67-13.02l-3.3,3.68v9.34h-7.36V81.08z"/>
		<path class="st7" d="M509.51,87.45v26.61h-7.36V87.45h-9.34v-6.37h26.04v6.37H509.51z"/>
		<path class="st7" d="M306.68,151.47c1.63,0,3.04-0.27,4.21-0.82c1.18-0.55,2.41-1.42,3.69-2.63l3.05,3.13
			c-2.97,3.29-6.58,4.94-10.82,4.94c-4.24,0-7.76-1.37-10.56-4.09c-2.8-2.73-4.2-6.18-4.2-10.36c0-4.17,1.43-7.65,4.28-10.44
			s6.45-4.17,10.8-4.17c4.35,0,7.98,1.61,10.9,4.82l-3.01,3.29c-1.34-1.28-2.6-2.18-3.79-2.69c-1.19-0.51-2.59-0.76-4.19-0.76
			c-2.84,0-5.22,0.92-7.14,2.75c-1.93,1.83-2.89,4.17-2.89,7.02c0,2.85,0.96,5.23,2.87,7.14
			C301.79,150.51,304.06,151.47,306.68,151.47z"/>
		<path class="st7" d="M346.3,151.89c-2.84,2.77-6.34,4.15-10.52,4.15c-4.17,0-7.68-1.38-10.52-4.15
			c-2.84-2.77-4.25-6.22-4.25-10.36s1.42-7.59,4.25-10.36s6.34-4.15,10.52-4.15c4.17,0,7.68,1.38,10.52,4.15
			c2.84,2.77,4.25,6.22,4.25,10.36S349.13,149.12,346.3,151.89z M342.82,134.33c-1.91-1.98-4.26-2.97-7.04-2.97
			s-5.13,0.99-7.04,2.97c-1.91,1.98-2.87,4.38-2.87,7.21s0.96,5.22,2.87,7.21c1.91,1.98,4.26,2.97,7.04,2.97s5.13-0.99,7.04-2.97
			s2.87-4.38,2.87-7.21S344.74,136.31,342.82,134.33z"/>
		<path class="st7" d="M361.27,155.76h-4.74V127.7h7.39l8.47,17.62l8.47-17.62h7.35v28.06h-4.74v-21.92l-9.79,19.47h-2.65
			l-9.75-19.47V155.76z"/>
		<path class="st7" d="M414.94,130.15c1.95,1.63,2.93,4.15,2.93,7.55s-1,5.89-2.99,7.47c-1.99,1.58-5.05,2.37-9.17,2.37h-4.98v8.23
			h-4.74V127.7h9.63C409.88,127.7,412.98,128.52,414.94,130.15z M411.58,141.73c0.95-1,1.42-2.47,1.42-4.42
			c0-1.94-0.6-3.31-1.81-4.11s-3.09-1.2-5.66-1.2h-4.82v11.24h5.5C408.85,143.24,410.63,142.74,411.58,141.73z"/>
		<path class="st7" d="M425.89,149.38l-2.81,6.38h-5.06l12.36-28.06h5.06l12.36,28.06h-5.06l-2.81-6.38H425.89z M438.01,145
			l-5.1-11.56l-5.1,11.56H438.01z"/>
		<path class="st7" d="M472.74,127.7h4.74v28.06h-5.14l-15.9-20.47v20.47h-4.74V127.7h4.74l16.3,20.95V127.7z"/>
		<path class="st7" d="M496.3,155.76h-4.82v-11.08l-10.44-16.98h5.18l7.67,12.76l7.67-12.76h5.18l-10.44,16.98V155.76z"/>
	</g>
	<rect x="263.51" y="-2.96" class="st8" width="3.6" height="205.41"/>
</g>
<rect x="279.23" y="99.57" class="st9" width="12.11" height="13.65"/>
<rect x="279.23" y="155.05" class="st9" width="12.11" height="13.65"/>
<path class="st2" d="M286.74,155.24v12.63h-2.52v-12.63h-4.53v-2.31h11.58v2.31H286.74z"/>
<path class="st2" d="M294,167.87v-14.94h2.52v6.48h7.42v-6.48h2.52v14.94h-2.52v-6.11h-7.42v6.11H294z"/>
<path class="st2" d="M321.1,152.93v2.37h-7.97v3.95h7.16v2.24h-7.16v4h8.23v2.37h-10.75v-14.94H321.1z"/>
<path class="st2" d="M343.59,154.15c1.07,0.91,1.6,2.3,1.6,4.18s-0.55,3.25-1.64,4.12c-1.1,0.87-2.77,1.31-5.01,1.31h-2.02V168
	h-3.39V152.8h5.37C340.82,152.8,342.52,153.25,343.59,154.15z M341.1,160.14c0.41-0.46,0.61-1.12,0.61-2c0-0.88-0.26-1.5-0.79-1.87
	c-0.53-0.37-1.35-0.55-2.47-0.55h-1.94v5.11h2.28C339.92,160.82,340.69,160.59,341.1,160.14z"/>
<path class="st2" d="M360.72,157.84c0,2.44-0.96,4.01-2.89,4.72l3.85,5.44h-4.18l-3.37-4.85h-2.35V168h-3.39V152.8h5.76
	c2.36,0,4.05,0.4,5.06,1.2C360.21,154.79,360.72,156.07,360.72,157.84z M356.63,159.65c0.42-0.38,0.63-0.98,0.63-1.79
	c0-0.82-0.22-1.38-0.65-1.69c-0.43-0.3-1.2-0.46-2.28-0.46h-2.54v4.5h2.48C355.42,160.21,356.21,160.02,356.63,159.65z"/>
<path class="st2" d="M377.38,165.9c-1.54,1.5-3.43,2.25-5.68,2.25c-2.25,0-4.14-0.75-5.68-2.25c-1.54-1.5-2.31-3.37-2.31-5.6
	c0-2.23,0.77-4.1,2.31-5.6s3.43-2.25,5.68-2.25c2.25,0,4.14,0.75,5.68,2.25s2.31,3.37,2.31,5.6
	C379.69,162.53,378.92,164.4,377.38,165.9z M376.23,160.31c0-1.36-0.43-2.51-1.31-3.47c-0.87-0.96-1.94-1.44-3.21-1.44
	c-1.27,0-2.34,0.48-3.21,1.44c-0.87,0.96-1.31,2.11-1.31,3.47c0,1.36,0.44,2.51,1.31,3.46c0.87,0.95,1.94,1.43,3.21,1.43
	c1.27,0,2.34-0.48,3.21-1.43C375.79,162.82,376.23,161.67,376.23,160.31z"/>
<path class="st2" d="M383.19,155.71v-2.91h7.92v9.92c0,1.81-0.47,3.17-1.4,4.07c-0.94,0.9-2.14,1.35-3.6,1.35
	c-1.83,0-3.42-0.7-4.79-2.11l1.76-2.44c0.91,0.99,1.87,1.48,2.87,1.48c0.48,0,0.89-0.19,1.23-0.55c0.34-0.37,0.51-0.92,0.51-1.66
	v-7.14H383.19z"/>
<path class="st2" d="M406.23,152.8v3.02h-7.57v3.13h6.81v2.89h-6.81V165h7.81v3h-11.2V152.8H406.23z"/>
<path class="st2" d="M410.03,152.8h3.39v6.24l5.74-6.24h4.2l-6.05,6.72c0.52,0.73,1.49,2.08,2.89,4.06
	c1.41,1.98,2.46,3.46,3.15,4.43h-3.96l-4.46-6l-1.52,1.7V168h-3.39V152.8z"/>
<path class="st2" d="M432.46,155.73V168h-3.39v-12.27h-4.31v-2.94h12.01v2.94H432.46z"/>
<path class="st2" d="M451.42,165.58c0.85,0,1.59-0.14,2.2-0.43c0.62-0.29,1.26-0.75,1.93-1.38l1.6,1.64
	c-1.55,1.72-3.44,2.58-5.66,2.58c-2.22,0-4.06-0.71-5.52-2.14c-1.46-1.43-2.19-3.23-2.19-5.42c0-2.18,0.75-4,2.24-5.46
	c1.49-1.46,3.37-2.18,5.65-2.18c2.27,0,4.17,0.84,5.7,2.52l-1.58,1.72c-0.7-0.67-1.36-1.14-1.98-1.41c-0.62-0.27-1.35-0.4-2.19-0.4
	c-1.48,0-2.73,0.48-3.74,1.44c-1.01,0.96-1.51,2.18-1.51,3.67c0,1.49,0.5,2.74,1.5,3.74C448.86,165.08,450.04,165.58,451.42,165.58z
	"/>
<path class="st2" d="M472.14,165.8c-1.48,1.45-3.32,2.17-5.5,2.17c-2.18,0-4.02-0.72-5.5-2.17c-1.48-1.45-2.23-3.25-2.23-5.42
	s0.74-3.97,2.23-5.42c1.48-1.45,3.32-2.17,5.5-2.17c2.18,0,4.02,0.72,5.5,2.17c1.48,1.45,2.23,3.25,2.23,5.42
	S473.63,164.35,472.14,165.8z M470.33,156.62c-1-1.04-2.23-1.55-3.69-1.55c-1.46,0-2.68,0.52-3.68,1.55c-1,1.04-1.5,2.29-1.5,3.77
	s0.5,2.73,1.5,3.77c1,1.04,2.23,1.55,3.68,1.55c1.46,0,2.68-0.52,3.69-1.55s1.5-2.29,1.5-3.77S471.33,157.65,470.33,156.62z"/>
<path class="st2" d="M479.97,167.83h-2.48v-14.68h3.86l4.43,9.22l4.43-9.22h3.84v14.68h-2.48v-11.46l-5.12,10.18h-1.39l-5.1-10.18
	V167.83z"/>
<path class="st2" d="M508.05,154.43c1.02,0.85,1.53,2.17,1.53,3.95s-0.52,3.08-1.56,3.91c-1.04,0.83-2.64,1.24-4.8,1.24h-2.6v4.3
	h-2.48v-14.68h5.04C505.4,153.15,507.03,153.58,508.05,154.43z M506.3,160.49c0.5-0.52,0.75-1.29,0.75-2.31
	c0-1.01-0.32-1.73-0.95-2.15c-0.63-0.42-1.62-0.63-2.96-0.63h-2.52v5.88h2.88C504.86,161.28,505.8,161.02,506.3,160.49z"/>
<path class="st2" d="M513.78,164.49l-1.47,3.34h-2.65l6.47-14.68h2.65l6.47,14.68h-2.65l-1.47-3.34H513.78z M520.12,162.2
	l-2.67-6.05l-2.67,6.05H520.12z"/>
<path class="st2" d="M540.9,153.15h2.48v14.68h-2.69l-8.32-10.71v10.71h-2.48v-14.68h2.48l8.53,10.96V153.15z"/>
<path class="st2" d="M553.23,167.83h-2.52v-5.8l-5.46-8.88h2.71l4.01,6.68l4.01-6.68h2.71l-5.46,8.88V167.83z"/>
</svg>
