<svg xmlns="http://www.w3.org/2000/svg" viewBox="0 0 44 32"><defs><style>.cls-1{fill:#122a95;}.cls-2{fill:#fff;}</style></defs><g id="Icons"><rect class="cls-1" y="2" width="44" height="28" rx="6"/><path class="cls-2" d="M18.7,12l-3.34,8H13.17l-1.64-6.42a.88.88,0,0,0-.49-.7,8.85,8.85,0,0,0-2-.69L9.05,12h3.51a1,1,0,0,1,.95.82l.87,4.65L16.53,12Zm8.55,5.42c0-2.13-2.91-2.24-2.89-3.19,0-.29.28-.6.87-.67a3.93,3.93,0,0,1,2,.35l.36-1.7a5.53,5.53,0,0,0-1.93-.36c-2,0-3.48,1.1-3.49,2.66,0,1.16,1,1.8,1.81,2.19s1.07.65,1.07,1c0,.54-.64.78-1.24.79A4.45,4.45,0,0,1,21.73,18l-.37,1.76a6.26,6.26,0,0,0,2.3.43c2.17,0,3.58-1.08,3.59-2.75M32.64,20h1.91l-1.67-8H31.12a.94.94,0,0,0-.88.59L27.14,20h2.17l.43-1.2h2.65Zm-2.3-2.85,1.08-3,.63,3ZM21.65,12l-1.71,8H17.88l1.71-8Z"/></g></svg>